<svg xmlns="http://www.w3.org/2000/svg" width="4.55" height="7.798" viewBox="0 0 4.55 7.798">
  <path id="_0xe8d5" data-name="0xe8d5" d="M2.149-4.4a.229.229,0,0,1-.07.168L-1.575-.574a.229.229,0,0,1-.168.07.279.279,0,0,1-.182-.07l-.392-.392A.254.254,0,0,1-2.4-1.148a.254.254,0,0,1,.084-.182L.749-4.4l-3.066-3.08A.212.212,0,0,1-2.4-7.644a.254.254,0,0,1,.084-.182l.392-.392A.226.226,0,0,1-1.743-8.3a.188.188,0,0,1,.168.084l3.654,3.64A.246.246,0,0,1,2.149-4.4Z" transform="translate(2.401 8.302)"/>
</svg>
