<svg xmlns="http://www.w3.org/2000/svg" xmlns:xlink="http://www.w3.org/1999/xlink" width="147" height="30.596" viewBox="0 0 147 30.596">
  <defs>
    <clipPath id="clip-path">
      <rect id="사각형_4" data-name="사각형 4" width="147" height="30.596" fill="none"/>
    </clipPath>
  </defs>
  <g id="CI" clip-path="url(#clip-path)">
    <path id="패스_27" data-name="패스 27" d="M24.661,30.6H20.92V0h3.741V8.289h3.646v3.244H24.661ZM8.932,21.644A8.88,8.88,0,0,1,5.2,20.879a8.107,8.107,0,0,1-2.825-2.128A9.9,9.9,0,0,1,.607,15.514,12.858,12.858,0,0,1,0,11.485a12.745,12.745,0,0,1,.607-4A9.909,9.909,0,0,1,2.369,4.254,8.319,8.319,0,0,1,5.2,2.11a8.724,8.724,0,0,1,3.737-.783,8.39,8.39,0,0,1,3.622.783A8.731,8.731,0,0,1,15.391,4.25,10.672,10.672,0,0,1,17.2,7.485a11.836,11.836,0,0,1,.659,4,11.939,11.939,0,0,1-.659,4.034,10.653,10.653,0,0,1-1.81,3.23,8.409,8.409,0,0,1-6.463,2.895m0-17.108A4.337,4.337,0,0,0,5.176,6.47a8.472,8.472,0,0,0-1.4,5.015,8.449,8.449,0,0,0,1.4,5.031,4.346,4.346,0,0,0,3.756,1.919,4.321,4.321,0,0,0,2.055-.506,4.9,4.9,0,0,0,1.621-1.4A6.991,6.991,0,0,0,13.7,14.325a9.79,9.79,0,0,0,.389-2.84A9.659,9.659,0,0,0,13.7,8.68a7.009,7.009,0,0,0-1.093-2.205,5.092,5.092,0,0,0-1.624-1.418,4.219,4.219,0,0,0-2.053-.52" transform="translate(0 0)" fill="#3e4e55"/>
    <path id="패스_28" data-name="패스 28" d="M59.357,30.6H55.616V0h3.741ZM43.629,21.644a8.88,8.88,0,0,1-3.736-.765,8.107,8.107,0,0,1-2.825-2.128A9.882,9.882,0,0,1,35.3,15.514a12.833,12.833,0,0,1-.608-4.029,12.72,12.72,0,0,1,.608-4,9.893,9.893,0,0,1,1.762-3.235A8.315,8.315,0,0,1,39.891,2.11a8.727,8.727,0,0,1,3.738-.783,8.384,8.384,0,0,1,3.621.783A8.731,8.731,0,0,1,50.087,4.25,10.641,10.641,0,0,1,51.9,7.485a11.838,11.838,0,0,1,.66,4,11.947,11.947,0,0,1-.66,4.034,10.637,10.637,0,0,1-1.81,3.23,8.405,8.405,0,0,1-6.462,2.895m0-17.108A4.336,4.336,0,0,0,39.873,6.47a8.466,8.466,0,0,0-1.4,5.015,8.449,8.449,0,0,0,1.4,5.031,4.568,4.568,0,0,0,5.811,1.413,4.891,4.891,0,0,0,1.621-1.4A6.983,6.983,0,0,0,48.4,14.325a9.831,9.831,0,0,0,.388-2.84A9.7,9.7,0,0,0,48.4,8.68,7,7,0,0,0,47.3,6.475a5.1,5.1,0,0,0-1.624-1.418,4.213,4.213,0,0,0-2.052-.52" transform="translate(-4.858 0)" fill="#3e4e55"/>
    <path id="패스_29" data-name="패스 29" d="M96.989,27.328H69.046V24.085H96.989ZM91.9,17.772,83.05,6.05,74.135,17.771,71.317,15.48,83.017.344l11.7,15.136Z" transform="translate(-9.667 -0.048)" fill="#3e4e55"/>
    <path id="패스_30" data-name="패스 30" d="M129.027,30.6h-3.74V21.478H108.709V18.234h20.317Zm0-13.261h-3.74v-1.99H106.057V.663H121.4V3.84H109.8V6.4H121.07V9.476H109.8v2.692h15.489V0h3.74V5.967h3.647V9.211h-3.647Z" transform="translate(-14.849 0)" fill="#3e4e55"/>
    <path id="패스_31" data-name="패스 31" d="M162.736,30.7H142.418V22.918h16.245V21.487H142.252V18.343H162.4V26H146.158V27.56h16.577Zm3.647-13.759H138.44V13.7h12.1V11.474h-8.123V.771H162.4v10.7h-8.123V13.7h12.1ZM146.158,8.231h12.505V4.014H146.158Z" transform="translate(-19.383 -0.108)" fill="#3e4e55"/>
  </g>
</svg>
