<svg xmlns="http://www.w3.org/2000/svg" width="158.001" height="88.001" viewBox="0 0 158.001 88.001">
  <g id="쿠폰" transform="translate(-1012.203 -517.846)">
    <g id="합치기" transform="translate(1038.203 528.846)" fill="#fff" stroke-linejoin="round">
      <path d="M 128.9997100830078 68.50031280517578 L -15.00029182434082 68.50031280517578 C -16.37863159179688 68.50031280517578 -17.49999237060547 67.37855529785156 -17.49999237060547 65.99971008300781 L -17.49999237060547 37.36653518676758 C -14.40808868408203 35.70441436767578 -12.50049209594727 32.52610397338867 -12.50049209594727 28.99799156188965 C -12.50049209594727 25.46985816955566 -14.40808868408203 22.29156875610352 -17.49999237060547 20.62944984436035 L -17.49999237060547 -8.000088691711426 C -17.49999237060547 -9.378448486328125 -16.37863159179688 -10.4998083114624 -15.00029182434082 -10.4998083114624 L 128.9997100830078 -10.4998083114624 C 130.3785552978516 -10.4998083114624 131.5003204345703 -9.378448486328125 131.5003204345703 -8.000088691711426 L 131.5003204345703 20.63032913208008 C 128.4084320068359 22.29244995117188 126.5008316040039 25.47076034545898 126.5008316040039 28.99891090393066 C 126.5008316040039 32.52702331542969 128.408447265625 35.7053337097168 131.5003204345703 37.36743545532227 L 131.5003204345703 65.99971008300781 C 131.5003204345703 67.37855529785156 130.3785552978516 68.50031280517578 128.9997100830078 68.50031280517578 Z" stroke="none"/>
      <path d="M 128.9997100830078 68.00031280517578 C 130.1028442382812 68.00031280517578 131.0003204345703 67.10285186767578 131.0003204345703 65.99971008300781 L 131.0003204345703 37.66131973266602 C 127.9009780883789 35.87583160400391 126.0008316040039 32.61159896850586 126.0008316040039 28.99891090393066 C 126.0008316040039 25.38620567321777 127.9009780883789 22.12195587158203 131.0003204345703 20.33644485473633 L 131.0003204345703 -8.000088691711426 C 131.0003204345703 -9.102727890014648 130.1028442382812 -9.999808311462402 128.9997100830078 -9.999808311462402 L -15.00029182434082 -9.999808311462402 C -16.10293197631836 -9.999808311462402 -16.99999237060547 -9.102727890014648 -16.99999237060547 -8.000088691711426 L -16.99999237060547 20.3355655670166 C -13.9006462097168 22.12107276916504 -12.00049209594727 25.38530540466309 -12.00049209594727 28.99799156188965 C -12.00049209594727 32.61067962646484 -13.9006462097168 35.87490844726562 -16.99999237060547 37.66041946411133 L -16.99999237060547 65.99971008300781 C -16.99999237060547 67.10285186767578 -16.10293197631836 68.00031280517578 -15.00029182434082 68.00031280517578 L 128.9997100830078 68.00031280517578 M 128.9997100830078 69.00031280517578 L -15.00029182434082 69.00031280517578 C -16.65433120727539 69.00031280517578 -17.99999237060547 67.65425109863281 -17.99999237060547 65.99971008300781 L -17.99999237060547 37.06227111816406 C -14.91597175598145 35.52937316894531 -13.00049209594727 32.43967056274414 -13.00049209594727 28.99799156188965 C -13.00049209594727 25.55655097961426 -14.91617202758789 22.46651268005371 -17.99999237060547 20.93371200561523 L -17.99999237060547 -8.000088691711426 C -17.99999237060547 -9.654128074645996 -16.65433120727539 -10.9998083114624 -15.00029182434082 -10.9998083114624 L 128.9997100830078 -10.9998083114624 C 130.6542510986328 -10.9998083114624 132.0003204345703 -9.654128074645996 132.0003204345703 -8.000088691711426 L 132.0003204345703 20.93459129333496 C 128.9163055419922 22.46749114990234 127.0008316040039 25.55721092224121 127.0008316040039 28.99891090393066 C 127.0008316040039 32.44035339355469 128.9165344238281 35.53039169311523 132.0003204345703 37.06317138671875 L 132.0003204345703 65.99971008300781 C 132.0003204345703 67.65425109863281 130.6542510986328 69.00031280517578 128.9997100830078 69.00031280517578 Z" stroke="none" fill="#1f1f1f"/>
    </g>
    <g id="합치기-2" data-name="합치기" transform="translate(1030.203 536.846)" fill="#fff" stroke-linejoin="round">
      <path d="M 128.9997100830078 68.00031280517578 L -15.00029182434082 68.00031280517578 C -16.10293197631836 68.00031280517578 -16.99999237060547 67.10285186767578 -16.99999237060547 65.99971008300781 L -16.99999237060547 37.66041946411133 C -13.9006462097168 35.87490844726562 -12.00049209594727 32.61067962646484 -12.00049209594727 28.99799156188965 C -12.00049209594727 25.38530540466309 -13.9006462097168 22.12107276916504 -16.99999237060547 20.3355655670166 L -16.99999237060547 -8.000088691711426 C -16.99999237060547 -9.102727890014648 -16.10293197631836 -9.999808311462402 -15.00029182434082 -9.999808311462402 L 128.9997100830078 -9.999808311462402 C 130.1028442382812 -9.999808311462402 131.0003204345703 -9.102727890014648 131.0003204345703 -8.000088691711426 L 131.0003204345703 20.33644485473633 C 127.9009780883789 22.12195587158203 126.0008316040039 25.38620567321777 126.0008316040039 28.99891090393066 C 126.0008316040039 32.61159896850586 127.9009780883789 35.87583160400391 131.0003204345703 37.66131973266602 L 131.0003204345703 65.99971008300781 C 131.0003204345703 67.10285186767578 130.1028442382812 68.00031280517578 128.9997100830078 68.00031280517578 Z" stroke="none"/>
      <path d="M 128.9997100830078 67.00031280517578 C 129.5514526367188 67.00031280517578 130.0003204345703 66.55145263671875 130.0003204345703 65.99971008300781 L 130.0003204345703 38.22170257568359 C 126.8878173828125 36.20462036132812 125.0008316040039 32.77480697631836 125.0008316040039 28.99891090393066 C 125.0008316040039 25.22297859191895 126.8878173828125 21.79315185546875 130.0003204345703 19.77605247497559 L 130.0003204345703 -8.000088691711426 C 130.0003204345703 -8.551328659057617 129.5514526367188 -8.999808311462402 128.9997100830078 -8.999808311462402 L -15.00029182434082 -8.999808311462402 C -15.55153179168701 -8.999808311462402 -15.99999237060547 -8.551328659057617 -15.99999237060547 -8.000088691711426 L -15.99999237060547 19.77517318725586 C -12.88748168945312 21.79227066040039 -11.00049209594727 25.22209548950195 -11.00049209594727 28.99799156188965 C -11.00049209594727 32.77388763427734 -12.88748168945312 36.20371246337891 -15.99999237060547 38.22080993652344 L -15.99999237060547 65.99971008300781 C -15.99999237060547 66.55145263671875 -15.55153179168701 67.00031280517578 -15.00029182434082 67.00031280517578 L 128.9997100830078 67.00031280517578 M 128.9997100830078 69.00031280517578 L -15.00029182434082 69.00031280517578 C -16.65433120727539 69.00031280517578 -17.99999237060547 67.65425109863281 -17.99999237060547 65.99971008300781 L -17.99999237060547 37.06227111816406 C -14.91597175598145 35.52937316894531 -13.00049209594727 32.43967056274414 -13.00049209594727 28.99799156188965 C -13.00049209594727 25.55655097961426 -14.91617202758789 22.46651268005371 -17.99999237060547 20.93371200561523 L -17.99999237060547 -8.000088691711426 C -17.99999237060547 -9.654128074645996 -16.65433120727539 -10.9998083114624 -15.00029182434082 -10.9998083114624 L 128.9997100830078 -10.9998083114624 C 130.6542510986328 -10.9998083114624 132.0003204345703 -9.654128074645996 132.0003204345703 -8.000088691711426 L 132.0003204345703 20.93459129333496 C 128.9163055419922 22.46749114990234 127.0008316040039 25.55721092224121 127.0008316040039 28.99891090393066 C 127.0008316040039 32.44035339355469 128.9165344238281 35.53039169311523 132.0003204345703 37.06317138671875 L 132.0003204345703 65.99971008300781 C 132.0003204345703 67.65425109863281 130.6542510986328 69.00031280517578 128.9997100830078 69.00031280517578 Z" stroke="none" fill="#1f1f1f"/>
    </g>
    <g id="합치기-3" data-name="합치기" transform="translate(1035.203 541.846)" fill="#fff" stroke-linejoin="round">
      <path d="M 117.9999084472656 56.49970626831055 L -14.00039768218994 56.49970626831055 C -14.82739734649658 56.49970626831055 -15.5001974105835 55.826904296875 -15.5001974105835 54.99990463256836 L -15.5001974105835 35.40176010131836 C -12.32004165649414 32.47053909301758 -10.50068855285645 28.32822036743164 -10.50068855285645 24.00030517578125 C -10.50068855285645 19.67274856567383 -12.32004165649414 15.53071784973145 -15.5001974105835 12.59960842132568 L -15.5001974105835 -7.000203132629395 C -15.5001974105835 -7.827203273773193 -14.82739734649658 -8.500002861022949 -14.00039768218994 -8.500002861022949 L 117.9999084472656 -8.500002861022949 C 118.8269119262695 -8.500002861022949 119.4997100830078 -7.827203273773193 119.4997100830078 -7.000203132629395 L 119.4997100830078 12.59867382049561 C 116.318977355957 15.52988052368164 114.4993133544922 19.6722469329834 114.4993133544922 24.00030517578125 C 114.4993133544922 28.32873916625977 116.3189926147461 32.47139358520508 119.4997100830078 35.40272903442383 L 119.4997100830078 54.99990463256836 C 119.4997100830078 55.826904296875 118.8269119262695 56.49970626831055 117.9999084472656 56.49970626831055 Z" stroke="none"/>
      <path d="M 117.9999084472656 55.99970626831055 C 118.5512008666992 55.99970626831055 118.9997100830078 55.55119705200195 118.9997100830078 54.99990463256836 L 118.9997100830078 35.61980819702148 C 115.8161010742188 32.60358810424805 113.9993133544922 28.39483642578125 113.9993133544922 24.00030517578125 C 113.9993133544922 19.60614395141602 115.8160781860352 15.39767456054688 118.9997100830078 12.38158798217773 L 118.9997100830078 -7.000203132629395 C 118.9997100830078 -7.551494121551514 118.5512008666992 -8.000002861022949 117.9999084472656 -8.000002861022949 L -14.00039768218994 -8.000002861022949 C -14.5516881942749 -8.000002861022949 -15.0001974105835 -7.551494121551514 -15.0001974105835 -7.000203132629395 L -15.0001974105835 12.38254737854004 C -11.81713008880615 15.39854526519775 -10.00068855285645 19.60665321350098 -10.00068855285645 24.00030517578125 C -10.00068855285645 28.39432716369629 -11.81714630126953 32.60271835327148 -15.0001974105835 35.61883163452148 L -15.0001974105835 54.99990463256836 C -15.0001974105835 55.55119705200195 -14.5516881942749 55.99970626831055 -14.00039768218994 55.99970626831055 L 117.9999084472656 55.99970626831055 M 117.9999084472656 56.99970626831055 L -14.00039768218994 56.99970626831055 C -15.10308837890625 56.99970626831055 -16.00019645690918 56.10259628295898 -16.00019645690918 54.99990463256836 L -16.00019645690918 35.18048858642578 C -12.82283401489258 32.33610534667969 -11.00068855285645 28.26134300231934 -11.00068855285645 24.00030517578125 C -11.00068855285645 19.73979759216309 -12.82294273376465 15.66506958007812 -16.00019645690918 12.8209056854248 L -16.00019645690918 -7.000203132629395 C -16.00019645690918 -8.102893829345703 -15.10308837890625 -9.000002861022949 -14.00039768218994 -9.000002861022949 L 117.9999084472656 -9.000002861022949 C 119.1026000976562 -9.000002861022949 119.9997100830078 -8.102893829345703 119.9997100830078 -7.000203132629395 L 119.9997100830078 12.81997871398926 C 116.8217468261719 15.66436004638672 114.9993133544922 19.7391414642334 114.9993133544922 24.00030517578125 C 114.9993133544922 28.26168823242188 116.821891784668 32.33705139160156 119.9997100830078 35.18141555786133 L 119.9997100830078 54.99990463256836 C 119.9997100830078 56.10259628295898 119.1026000976562 56.99970626831055 117.9999084472656 56.99970626831055 Z" stroke="none" fill="#1f1f1f"/>
    </g>
  </g>
</svg>
