<svg xmlns="http://www.w3.org/2000/svg" xmlns:xlink="http://www.w3.org/1999/xlink" width="220" height="62" viewBox="0 0 220 62">
  <defs>
    <linearGradient id="linear-gradient" x1="0.015" y1="0.5" x2="0.957" y2="0.585" gradientUnits="objectBoundingBox">
      <stop offset="0" stop-color="#fff"/>
      <stop offset="1" stop-color="gray"/>
    </linearGradient>
    <clipPath id="clip-path">
      <path id="사각형" d="M0,14,14,0H220V62H0Z" transform="translate(210.721 -8.35)" fill="url(#linear-gradient)"/>
    </clipPath>
    <linearGradient id="linear-gradient-2" x1="0.916" y1="0.544" x2="0.047" y2="0.5" gradientUnits="objectBoundingBox">
      <stop offset="0" stop-color="#30b890"/>
      <stop offset="1" stop-color="#2868b2"/>
    </linearGradient>
  </defs>
  <g id="패턴" transform="translate(-210.721 8.35)" opacity="0.5" clip-path="url(#clip-path)">
    <path id="합치기" d="M13719.707,4455.694l2.115-.374-.927-5.255,2.86-.5c.042-.007.081-.018.119-.024l3.757,4.761,2.408-.427-4.08-5.093c.123-.071.247-.138.363-.219a3.667,3.667,0,0,0,1.357-1.785,4.619,4.619,0,0,0,.145-2.37,4.735,4.735,0,0,0-.945-2.194,3.747,3.747,0,0,0-1.894-1.245,5.958,5.958,0,0,0-2.755-.078l-4.979.878,2.455,13.928m3.433-13.036a3.954,3.954,0,0,1,.895.1,2.046,2.046,0,0,1,1.107.706,2.949,2.949,0,0,1,.543,1.315,2.826,2.826,0,0,1-.06,1.4,1.95,1.95,0,0,1-.8,1.009,4.167,4.167,0,0,1-1.608.582l-2.646.466-.885-5.033,2.638-.466a3.9,3.9,0,0,1,.813-.085m-361.023,12.119,2.116-.374-.928-5.259,2.86-.5c.039,0,.077-.014.12-.021l3.756,4.758,2.409-.423-4.081-5.093c.123-.071.243-.138.359-.219a3.7,3.7,0,0,0,1.358-1.788,4.671,4.671,0,0,0,.148-2.37,4.77,4.77,0,0,0-.945-2.194,3.739,3.739,0,0,0-1.895-1.241,5.912,5.912,0,0,0-2.758-.081l-4.977.878,2.455,13.931m3.438-13.038a3.929,3.929,0,0,1,.889.1,2.073,2.073,0,0,1,1.1.706,2.874,2.874,0,0,1,.543,1.315,2.807,2.807,0,0,1-.057,1.407,1.955,1.955,0,0,1-.8,1,4.106,4.106,0,0,1-1.608.582l-2.646.469-.889-5.033,2.642-.469a4.055,4.055,0,0,1,.818-.084m365.124,12.022,2.243-.4.624-3.9,5.428-.956,1.923,3.457,2.243-.4-7.463-13.046-2.451.43-2.547,14.813m4.274-12.492,3.1,5.569-4.2.741,1-6.292.109-.018m-361.865,11.572,2.243-.4.624-3.908,5.425-.956,1.922,3.457,2.247-.4-7.463-13.046-2.451.434-2.547,14.81m4.274-12.492,3.094,5.569-4.2.741,1-6.292.109-.018m367.441,10.919,2.116-.374-1.068-6.063,5.911-1.044-.321-1.809-5.907,1.041-.748-4.229,6.532-1.15-.325-1.823-8.644,1.523,2.454,13.928m242.188-.056,2.112-.371-.924-5.258,2.86-.5c.039,0,.078-.018.116-.021l3.757,4.758,2.408-.423-4.077-5.093c.12-.071.244-.141.36-.219a3.693,3.693,0,0,0,1.357-1.788,4.617,4.617,0,0,0,.145-2.37,4.725,4.725,0,0,0-.941-2.194,3.747,3.747,0,0,0-1.9-1.242,5.933,5.933,0,0,0-2.755-.081l-4.979.878,2.458,13.928m3.436-13.035a3.9,3.9,0,0,1,.889.1,2.065,2.065,0,0,1,1.107.705,2.951,2.951,0,0,1,.543,1.316,2.876,2.876,0,0,1-.057,1.407,1.97,1.97,0,0,1-.8,1,4.185,4.185,0,0,1-1.608.582l-2.645.465-.889-5.033,2.638-.465a4.048,4.048,0,0,1,.818-.084m-603.214,12.174,2.116-.374-1.068-6.066,5.907-1.041-.317-1.812-5.911,1.044-.744-4.229,6.528-1.153-.32-1.823-8.645,1.527,2.454,13.928m242.185-.056,2.116-.374-.928-5.255,2.86-.5c.042-.007.081-.018.12-.025l3.756,4.761,2.409-.427-4.081-5.093c.123-.07.247-.137.363-.219a3.7,3.7,0,0,0,1.357-1.784,4.63,4.63,0,0,0,.146-2.37,4.751,4.751,0,0,0-.945-2.194,3.771,3.771,0,0,0-1.895-1.245,5.961,5.961,0,0,0-2.754-.078l-4.98.878,2.455,13.928m3.433-13.036a3.947,3.947,0,0,1,.895.1,2.043,2.043,0,0,1,1.107.705,2.924,2.924,0,0,1,.543,1.316,2.824,2.824,0,0,1-.06,1.4,1.943,1.943,0,0,1-.8,1.009,4.172,4.172,0,0,1-1.605.582l-2.648.465-.885-5.033,2.638-.465a3.906,3.906,0,0,1,.813-.085m122.868,12.091,2.116-.374-1.068-6.066,5.911-1.041-.321-1.813-5.907,1.041-.748-4.229,6.532-1.15-.325-1.823-8.644,1.523,2.454,13.931m242.262-.071,2.247-.4.62-3.908,5.428-.956,1.923,3.456,2.243-.395-7.463-13.046-2.451.434-2.547,14.809m4.274-12.492,3.1,5.569-4.2.74,1-6.292.105-.018m-604.127,11.643,2.116-.374-1.068-6.066,5.907-1.04-.317-1.813-5.911,1.044-.744-4.229,6.528-1.153-.32-1.82-8.645,1.523,2.454,13.928m242.262-.067,2.243-.4.624-3.9,5.429-.956,1.918,3.457,2.247-.4-7.463-13.046-2.451.431-2.547,14.813m4.274-12.5,3.1,5.569-4.2.744,1-6.292.109-.021m121.953,11.561,8.419-1.485-.321-1.823-6.3,1.111-2.137-12.1-2.113.374,2.455,13.927m245.492-.638,2.116-.374-1.072-6.066,5.911-1.041-.321-1.813-5.907,1.041-.748-4.225,6.532-1.153-.325-1.823-8.644,1.523,2.458,13.931m-603.083-.282,8.419-1.481-.324-1.823-6.3,1.111-2.134-12.107-2.116.374,2.458,13.928m245.488-.638,2.116-.371-1.068-6.07,5.907-1.04-.317-1.813-5.911,1.044-.744-4.229,6.528-1.15-.32-1.823-8.645,1.523,2.454,13.928m242.188-.057,2.116-.37-.927-5.259,2.859-.5c.039-.007.078-.018.117-.024l3.76,4.761,2.405-.423-4.077-5.093c.119-.074.243-.141.359-.219a3.691,3.691,0,0,0,1.357-1.788,4.63,4.63,0,0,0,.146-2.37,4.71,4.71,0,0,0-.942-2.194,3.746,3.746,0,0,0-1.9-1.241,5.922,5.922,0,0,0-2.754-.081l-4.977.878,2.454,13.928m3.434-13.036a3.954,3.954,0,0,1,.895.1,2.07,2.07,0,0,1,1.1.706,3.31,3.31,0,0,1,.487,2.723,1.972,1.972,0,0,1-.8,1.005,4.162,4.162,0,0,1-1.608.582l-2.645.466-.889-5.033,2.642-.466a3.892,3.892,0,0,1,.813-.085m-123.048,12.8,8.825-1.555-.325-1.82-6.7,1.182-.748-4.243,6.169-1.09-.317-1.812-6.173,1.09-.744-4.229,6.631-1.167-.321-1.823-8.746,1.542,2.454,13.927m-237.979-.684,2.116-.374-.928-5.255,2.86-.5c.042-.007.081-.018.12-.024l3.756,4.761,2.409-.427-4.081-5.093c.124-.071.247-.138.363-.219a3.729,3.729,0,0,0,1.358-1.785,4.63,4.63,0,0,0,.145-2.37,4.755,4.755,0,0,0-.945-2.194,3.719,3.719,0,0,0-1.895-1.245,5.963,5.963,0,0,0-2.758-.078l-4.977.878,2.455,13.928m3.439-13.037a3.815,3.815,0,0,1,.888.1,2.046,2.046,0,0,1,1.107.706,2.935,2.935,0,0,1,.544,1.315,2.826,2.826,0,0,1-.061,1.4,1.945,1.945,0,0,1-.8,1.009,4.167,4.167,0,0,1-1.608.582l-2.646.466-.889-5.033,2.642-.466a3.932,3.932,0,0,1,.819-.086m480.456,13.009,2.116-.374-1.072-6.066,5.911-1.041-.321-1.812-5.907,1.044-.748-4.229,6.532-1.153-.321-1.82-8.647,1.524,2.458,13.927m-603.506-.2,8.82-1.555-.321-1.823-6.7,1.182-.748-4.243,6.169-1.086-.321-1.812-6.168,1.086-.744-4.226,6.63-1.171-.32-1.823-8.747,1.541,2.455,13.931m245.911-.712,2.116-.374-1.068-6.066,5.907-1.044-.317-1.809-5.911,1.04-.744-4.225,6.528-1.153-.32-1.823-8.645,1.523,2.454,13.931m242.262-.07,2.247-.4.62-3.908,5.429-.956,1.922,3.457,2.243-.4-7.46-13.046-2.451.434-2.55,14.81m4.278-12.492,3.093,5.569-4.2.741,1-6.292.109-.018m-361.869,11.572,2.243-.4.625-3.9,5.428-.959,1.918,3.46,2.247-.4-7.463-13.046-2.451.434-2.547,14.81m4.275-12.492,3.1,5.569-4.2.744,1-6.292.109-.021m479.543,12.478,8.419-1.485-.321-1.82-6.3,1.111-2.134-12.108-2.116.374,2.455,13.928m-357.591-.917,8.419-1.485-.321-1.823-6.3,1.111-2.137-12.1-2.113.374,2.455,13.928m245.492-.638,2.116-.374-1.068-6.066,5.907-1.041-.321-1.812-5.907,1.041-.748-4.226,6.532-1.153-.321-1.823-8.645,1.523,2.455,13.932m122.573-.29,8.821-1.555-.321-1.823-6.708,1.181-.748-4.243,6.169-1.086-.317-1.812-6.169,1.086-.748-4.225,6.631-1.171-.321-1.823-8.746,1.541,2.458,13.931m-480.167-.631,2.116-.374-1.069-6.063,5.908-1.044-.317-1.812-5.911,1.044-.744-4.229,6.528-1.15-.321-1.823-8.645,1.523,2.455,13.928m242.188-.056,2.112-.371-.924-5.258,2.86-.5c.038-.007.077-.018.116-.025l3.756,4.761,2.409-.423-4.081-5.1c.124-.07.247-.137.363-.215a3.7,3.7,0,0,0,1.358-1.788,4.63,4.63,0,0,0,.145-2.37,4.777,4.777,0,0,0-.942-2.194,3.747,3.747,0,0,0-1.9-1.242,5.94,5.94,0,0,0-2.754-.081l-4.98.878,2.459,13.928m3.429-13.036a3.947,3.947,0,0,1,.895.1,2.065,2.065,0,0,1,1.107.705,2.953,2.953,0,0,1,.544,1.316,2.887,2.887,0,0,1-.057,1.407,1.989,1.989,0,0,1-.8,1,4.191,4.191,0,0,1-1.608.582l-2.649.465-.885-5.033,2.638-.465a3.906,3.906,0,0,1,.813-.085m-123.043,12.8,8.824-1.555-.325-1.82-6.7,1.181-.748-4.243,6.169-1.09-.321-1.809-6.168,1.086-.744-4.229,6.63-1.167-.32-1.823-8.747,1.541,2.455,13.928m-237.98-.684,2.116-.374-.928-5.255,2.86-.5c.043-.007.081-.018.12-.025l3.756,4.761,2.409-.427-4.081-5.093c.124-.07.247-.137.363-.219a3.675,3.675,0,0,0,1.354-1.784,4.623,4.623,0,0,0,.148-2.37,4.768,4.768,0,0,0-.945-2.2,3.733,3.733,0,0,0-1.894-1.242,5.967,5.967,0,0,0-2.759-.078l-4.976.878,2.454,13.928m3.439-13.038a3.818,3.818,0,0,1,.889.1,2.027,2.027,0,0,1,1.107.705,2.935,2.935,0,0,1,.543,1.316,2.87,2.87,0,0,1-.061,1.4,1.962,1.962,0,0,1-.8,1.009,4.168,4.168,0,0,1-1.608.582l-2.645.465-.886-5.033,2.639-.465a3.93,3.93,0,0,1,.818-.087m480.456,13.009,2.116-.374-1.068-6.066,5.907-1.041-.321-1.813-5.907,1.044-.748-4.229,6.532-1.153-.321-1.823-8.645,1.527,2.455,13.928m-357.594-.92,2.116-.371-1.069-6.066,5.908-1.044-.317-1.81-5.911,1.041-.744-4.229,6.528-1.15-.321-1.823-8.645,1.523,2.455,13.928m242.261-.067,2.243-.395.625-3.908,5.428-.956,1.922,3.457,2.243-.4-7.463-13.046-2.451.431-2.547,14.813m4.275-12.492,3.1,5.569-4.2.74,1-6.292.106-.018m-361.865,11.572,2.243-.4.624-3.9,5.424-.959,1.923,3.46,2.246-.4-7.463-13.046-2.451.431-2.546,14.809m4.274-12.492,3.1,5.569-4.208.744,1-6.292.109-.021m479.547,12.478,8.415-1.485-.321-1.82-6.3,1.111-2.134-12.108-2.116.374,2.459,13.927m-357.595-.917,8.419-1.485-.321-1.823-6.3,1.111-2.138-12.1-2.112.374,2.454,13.927m245.492-.642,2.113-.371-1.069-6.066,5.911-1.044-.32-1.81-5.908,1.041-.747-4.229,6.528-1.15-.321-1.823-8.645,1.523,2.458,13.928m122.573-.29,8.821-1.552-.321-1.823-6.7,1.182-.752-4.243,6.172-1.09-.32-1.809-6.169,1.086-.744-4.225,6.627-1.171-.32-1.823-8.743,1.542,2.454,13.927m-480.167-.627,2.116-.374-1.068-6.066,5.907-1.04-.317-1.813-5.911,1.044-.744-4.229,6.528-1.15-.321-1.823-8.645,1.523,2.455,13.928m242.184-.057,2.12-.374-.932-5.255,2.86-.5c.043-.007.081-.018.12-.024l3.756,4.761,2.409-.423-4.081-5.1c.124-.071.247-.138.363-.219a3.674,3.674,0,0,0,1.358-1.785,4.619,4.619,0,0,0,.145-2.37,4.78,4.78,0,0,0-.941-2.194,3.778,3.778,0,0,0-1.9-1.245,5.964,5.964,0,0,0-2.755-.078l-4.979.878,2.454,13.928m3.434-13.036a3.96,3.96,0,0,1,.895.1,2.069,2.069,0,0,1,1.107.706,2.949,2.949,0,0,1,.543,1.315,2.826,2.826,0,0,1-.061,1.4,1.957,1.957,0,0,1-.793,1.009,4.185,4.185,0,0,1-1.612.582l-2.645.466-.886-5.033,2.639-.466a3.892,3.892,0,0,1,.813-.085m-123.044,12.8,8.82-1.555-.32-1.823-6.705,1.185-.747-4.247,6.168-1.086-.321-1.812-6.168,1.09-.744-4.229,6.631-1.167-.321-1.823-8.747,1.542,2.455,13.927m-237.98-.684,2.116-.374-.927-5.255,2.86-.5.119-.024,3.757,4.761,2.408-.427-4.08-5.093c.123-.071.247-.138.363-.219a3.7,3.7,0,0,0,1.354-1.785,4.622,4.622,0,0,0,.147-2.37,4.735,4.735,0,0,0-.945-2.194,3.717,3.717,0,0,0-1.894-1.245,5.97,5.97,0,0,0-2.758-.078l-4.977.878,2.454,13.928m3.44-13.037a3.815,3.815,0,0,1,.888.1,2.017,2.017,0,0,1,1.1.706,2.848,2.848,0,0,1,.543,1.315,2.792,2.792,0,0,1-.056,1.4,1.952,1.952,0,0,1-.8,1,4.107,4.107,0,0,1-1.607.585l-2.646.466-.889-5.033,2.642-.466a3.932,3.932,0,0,1,.819-.086m480.455,13.009,2.113-.374-1.069-6.066,5.911-1.041-.32-1.812-5.908,1.04-.747-4.225,6.531-1.153-.32-1.823-8.648,1.527,2.458,13.927m-357.594-.917,2.116-.374-1.068-6.066,5.907-1.044-.317-1.809-5.911,1.04-.744-4.229,6.528-1.15-.321-1.823-8.645,1.523,2.455,13.931m242.262-.07,2.243-.4.624-3.9,5.428-.956,1.922,3.457,2.243-.4-7.463-13.046-2.451.43-2.546,14.813m4.274-12.492,3.1,5.569-4.2.741,1-6.292.105-.018m-361.865,11.572,2.243-.4.624-3.9,5.425-.959,1.922,3.46,2.246-.4-7.463-13.046-2.451.434-2.546,14.81m4.274-12.492,3.093,5.569-4.2.741,1-6.289.109-.021m479.543,12.478,8.419-1.485-.321-1.82-6.3,1.111-2.134-12.108-2.116.374,2.454,13.928m-357.59-.917,8.418-1.485-.32-1.823-6.3,1.111-2.138-12.1-2.116.371,2.459,13.931m245.491-.638,2.113-.374-1.068-6.066,5.91-1.044-.32-1.809-5.908,1.041-.747-4.229,6.531-1.15-.324-1.823-8.645,1.523,2.458,13.932m242.185-.057,2.116-.374-.928-5.258,2.86-.5c.039,0,.077-.014.116-.021l3.756,4.762,2.409-.427-4.077-5.093c.12-.071.243-.138.359-.219a3.708,3.708,0,0,0,1.358-1.785,4.622,4.622,0,0,0,.145-2.37,4.774,4.774,0,0,0-.941-2.2,3.751,3.751,0,0,0-1.9-1.242,5.919,5.919,0,0,0-2.755-.077l-4.979.875,2.458,13.931m3.441-13.038a3.884,3.884,0,0,1,.883.1,2.053,2.053,0,0,1,1.107.709,3.3,3.3,0,0,1,.486,2.719,1.975,1.975,0,0,1-.8,1,4.074,4.074,0,0,1-1.608.582l-2.646.469-.889-5.033,2.639-.465a3.938,3.938,0,0,1,.824-.087m-123.052,12.8,8.82-1.559-.321-1.82-6.708,1.181-.747-4.243,6.168-1.09-.317-1.809-6.168,1.086-.748-4.229,6.631-1.167-.321-1.823-8.747,1.541,2.459,13.931m-480.168-.631,2.116-.374-1.068-6.066,5.907-1.041-.317-1.812-5.911,1.044-.744-4.229,6.528-1.15-.321-1.823-8.645,1.523,2.455,13.928m242.184-.056,2.116-.371-.927-5.258,2.86-.5c.042-.007.081-.018.119-.025l3.757,4.761,2.408-.423-4.08-5.093c.123-.074.247-.141.363-.223a3.665,3.665,0,0,0,1.357-1.784,4.619,4.619,0,0,0,.145-2.37,4.731,4.731,0,0,0-.945-2.194,3.72,3.72,0,0,0-1.894-1.242,5.932,5.932,0,0,0-2.755-.081l-4.979.878,2.454,13.928m3.434-13.036a3.954,3.954,0,0,1,.895.1,2.065,2.065,0,0,1,1.107.705,2.951,2.951,0,0,1,.543,1.316,2.853,2.853,0,0,1-.06,1.407,1.951,1.951,0,0,1-.8,1,4.168,4.168,0,0,1-1.6.582l-2.648.465-.886-5.033,2.639-.465a3.9,3.9,0,0,1,.813-.085m-123.044,12.8,8.821-1.555-.321-1.824-6.705,1.185-.747-4.246,6.168-1.086-.32-1.813-6.169,1.09-.744-4.229,6.631-1.171-.321-1.824-8.746,1.545,2.454,13.928m245.916-.712,2.112-.374-1.068-6.066,5.91-1.041-.32-1.813-5.908,1.041-.747-4.225,6.531-1.153-.324-1.823-8.645,1.527,2.459,13.928m242.258-.071,2.246-.4.621-3.9,5.428-.959,1.922,3.457,2.243-.4-7.463-13.046-2.451.434-2.546,14.809m4.278-12.492,3.093,5.569-4.2.74,1-6.292.109-.018m-604.131,11.643,2.116-.371-1.068-6.066,5.907-1.044-.317-1.81-5.911,1.041-.744-4.229,6.528-1.15-.321-1.823-8.645,1.523,2.455,13.928m242.262-.067,2.243-.395.624-3.908,5.428-.956,1.923,3.457,2.242-.4-7.463-13.046-2.451.431-2.546,14.813m4.274-12.492,3.1,5.569-4.2.74,1-6.292.105-.018m121.953,11.558,8.418-1.485-.32-1.82-6.3,1.111-2.138-12.108-2.112.374,2.455,13.927m245.492-.638,2.115-.374-1.071-6.066,5.91-1.041-.32-1.813-5.908,1.044-.747-4.229,6.531-1.153-.32-1.82-8.648,1.523,2.459,13.928m-603.083-.279,8.418-1.485-.32-1.823-6.307,1.111-2.134-12.1-2.116.37,2.459,13.931m245.492-.638,2.112-.374-1.068-6.066,5.911-1.044-.321-1.81-5.907,1.041-.748-4.229,6.528-1.15-.321-1.823-8.645,1.523,2.459,13.931m242.184-.057,2.116-.374-.928-5.259,2.86-.5c.039,0,.078-.014.116-.021l3.757,4.761,2.408-.427-4.077-5.093c.12-.07.244-.138.36-.219a3.7,3.7,0,0,0,1.357-1.785,4.632,4.632,0,0,0,.145-2.374,4.769,4.769,0,0,0-.941-2.194,3.746,3.746,0,0,0-1.9-1.241,5.924,5.924,0,0,0-2.755-.078l-4.979.878,2.458,13.927m3.441-13.038a3.9,3.9,0,0,1,.883.1,2.066,2.066,0,0,1,1.107.706,2.946,2.946,0,0,1,.543,1.319,2.875,2.875,0,0,1-.057,1.4,1.971,1.971,0,0,1-.8,1.005,4.068,4.068,0,0,1-1.608.582l-2.645.469-.89-5.036,2.639-.462a3.985,3.985,0,0,1,.824-.087m-123.052,12.8,8.82-1.555-.32-1.82-6.709,1.182-.747-4.243,6.168-1.09-.317-1.809-6.168,1.086-.748-4.229,6.631-1.167-.321-1.823-8.746,1.542,2.458,13.927m-237.983-.684,2.116-.374-.928-5.255,2.86-.5c.042-.007.081-.018.12-.024l3.756,4.761,2.408-.423-4.08-5.1c.123-.071.247-.138.363-.219a3.682,3.682,0,0,0,1.357-1.785,4.619,4.619,0,0,0,.145-2.37,4.743,4.743,0,0,0-.944-2.194,3.754,3.754,0,0,0-1.895-1.245,5.96,5.96,0,0,0-2.754-.078l-4.98.878,2.455,13.928m3.433-13.036a3.947,3.947,0,0,1,.895.1,2.046,2.046,0,0,1,1.107.706,2.938,2.938,0,0,1,.543,1.315,2.826,2.826,0,0,1-.06,1.4,1.95,1.95,0,0,1-.8,1.009,4.167,4.167,0,0,1-1.608.582l-2.646.466-.885-5.033,2.638-.466a3.9,3.9,0,0,1,.813-.085m480.463,13.008,2.115-.374-1.071-6.063,5.91-1.044-.32-1.809-5.908,1.041-.747-4.229,6.531-1.149-.32-1.824-8.648,1.524,2.459,13.927m-603.507-.2,8.821-1.556-.321-1.823-6.7,1.185-.748-4.247,6.169-1.086-.321-1.813-6.169,1.09-.744-4.229,6.631-1.167-.321-1.824-8.746,1.542,2.454,13.928m245.916-.713,2.112-.374-1.068-6.066,5.911-1.041-.321-1.812-5.907,1.04-.748-4.225,6.532-1.153-.325-1.823-8.645,1.527,2.459,13.927m242.258-.07,2.246-.4.621-3.9,5.428-.959,1.923,3.457,2.242-.4-7.463-13.046-2.451.434L13904,4423.2m4.278-12.492,3.093,5.569-4.2.741,1-6.289.109-.021m-361.869,11.575,2.243-.4.624-3.9,5.428-.956,1.923,3.457,2.243-.4-7.463-13.046-2.451.43-2.547,14.813m4.274-12.5,3.1,5.572-4.2.741,1-6.292.109-.021m479.544,12.481,8.418-1.485-.32-1.823-6.3,1.111-2.134-12.1-2.116.37,2.455,13.931m-357.591-.92,8.418-1.485-.32-1.82-6.3,1.111-2.138-12.108-2.112.374,2.455,13.928m245.492-.638,2.116-.374-1.072-6.066,5.911-1.041-.321-1.812-5.907,1.041-.748-4.226,6.532-1.153-.325-1.823-8.645,1.527,2.459,13.928m122.573-.29,8.82-1.555-.32-1.823-6.709,1.185-.747-4.246,6.168-1.086-.317-1.812-6.168,1.089-.744-4.229,6.627-1.171-.321-1.823-8.746,1.544,2.458,13.928m-480.168-.631,2.116-.37-1.068-6.066,5.907-1.044-.317-1.812-5.911,1.044-.744-4.229,6.528-1.15-.32-1.823-8.645,1.523,2.454,13.928m242.188-.053,2.113-.374-.925-5.258,2.86-.5c.039,0,.078-.014.117-.021l3.756,4.758,2.408-.423-4.076-5.093c.119-.071.243-.138.359-.219a3.693,3.693,0,0,0,1.357-1.788,4.617,4.617,0,0,0,.145-2.37,4.74,4.74,0,0,0-.941-2.194,3.747,3.747,0,0,0-1.9-1.242,5.961,5.961,0,0,0-2.754-.081l-4.98.878,2.458,13.931m3.436-13.038a3.9,3.9,0,0,1,.889.1,2.065,2.065,0,0,1,1.107.705,2.94,2.94,0,0,1,.543,1.316,2.876,2.876,0,0,1-.057,1.407,1.97,1.97,0,0,1-.8,1,4.13,4.13,0,0,1-1.608.582l-2.645.469-.889-5.033,2.638-.469a4.055,4.055,0,0,1,.818-.084m-123.05,12.8,8.824-1.555-.32-1.82-6.708,1.181-.748-4.243,6.169-1.09-.317-1.809-6.173,1.086-.744-4.229,6.631-1.167-.321-1.823-8.746,1.541,2.454,13.928m-237.979-.684,2.116-.374-.928-5.255,2.86-.5c.042-.007.081-.018.12-.025l3.756,4.761,2.409-.427-4.081-5.093c.124-.07.247-.137.363-.219a3.712,3.712,0,0,0,1.358-1.784,4.63,4.63,0,0,0,.145-2.37,4.751,4.751,0,0,0-.945-2.194,3.724,3.724,0,0,0-1.895-1.245,5.96,5.96,0,0,0-2.754-.078l-4.98.878,2.455,13.928m3.433-13.036a3.947,3.947,0,0,1,.895.1,2.043,2.043,0,0,1,1.107.705,2.924,2.924,0,0,1,.543,1.316,2.813,2.813,0,0,1-.06,1.4,1.943,1.943,0,0,1-.8,1.009,4.173,4.173,0,0,1-1.6.582l-2.649.465-.885-5.033,2.638-.465a3.906,3.906,0,0,1,.813-.085m480.463,13.008,2.116-.37-1.072-6.07,5.911-1.041-.321-1.813-5.907,1.044-.748-4.229,6.532-1.15-.325-1.823-8.644,1.523,2.458,13.928m-357.595-.917,2.116-.374-1.068-6.066,5.907-1.044-.317-1.81-5.911,1.041-.744-4.225,6.528-1.153-.32-1.823-8.645,1.523,2.454,13.931m242.262-.071,2.247-.395.62-3.908,5.428-.956,1.923,3.457,2.243-.4-7.463-13.046-2.451.434-2.547,14.809m4.274-12.492,3.1,5.569-4.2.74,1-6.292.105-.018M13456.1,4416.88l2.243-.4.625-3.9,5.428-.959,1.918,3.46,2.247-.4-7.463-13.046-2.451.431-2.547,14.813m4.275-12.492,3.1,5.565-4.2.744,1-6.292.109-.018m479.543,12.475,8.418-1.485-.32-1.82-6.3,1.111-2.134-12.108-2.116.374,2.455,13.927m-357.591-.917,8.419-1.485-.321-1.823-6.3,1.111-2.137-12.1-2.113.374,2.455,13.927m245.492-.638,2.112-.374-1.068-6.066,5.911-1.041-.321-1.813-5.907,1.044-.748-4.229,6.528-1.153-.32-1.823-8.645,1.527,2.458,13.928m122.573-.289,8.82-1.556-.32-1.823-6.708,1.182-.748-4.243,6.169-1.086-.317-1.813-6.169,1.09-.748-4.229,6.635-1.171-.325-1.823-8.746,1.545,2.458,13.928m-480.167-.631,2.115-.374-1.068-6.062,5.907-1.044-.317-1.81-5.91,1.041-.744-4.229,6.527-1.15-.32-1.823-8.645,1.523,2.455,13.928m242.188-.053,2.115-.374-.927-5.259,2.86-.5c.038,0,.077-.014.116-.021l3.756,4.758,2.409-.423-4.077-5.093c.12-.07.243-.141.359-.219a3.705,3.705,0,0,0,1.358-1.785,4.643,4.643,0,0,0,.145-2.374,4.781,4.781,0,0,0-.942-2.194,3.746,3.746,0,0,0-1.9-1.241,5.922,5.922,0,0,0-2.754-.081l-4.98.878,2.459,13.931m3.43-13.039h.006a3.921,3.921,0,0,1,.888.1,2.066,2.066,0,0,1,1.107.706,2.938,2.938,0,0,1,.543,1.315,2.875,2.875,0,0,1-.056,1.407,1.973,1.973,0,0,1-.8,1.005,4.123,4.123,0,0,1-1.607.582l-2.649.469-.885-5.036,2.638-.462a3.814,3.814,0,0,1,.813-.088m-123.044,12.8,8.824-1.556-.325-1.82-6.7,1.182-.748-4.243,6.169-1.089-.317-1.81-6.172,1.086-.744-4.229,6.63-1.167-.32-1.824-8.747,1.542,2.455,13.928m-237.98-.685,2.116-.374-.928-5.255,2.86-.5c.043-.007.081-.018.12-.024l3.756,4.761,2.409-.427-4.081-5.093c.124-.071.247-.138.363-.219a3.676,3.676,0,0,0,1.354-1.785,4.631,4.631,0,0,0,.148-2.37,4.755,4.755,0,0,0-.945-2.194,3.763,3.763,0,0,0-1.894-1.245,5.981,5.981,0,0,0-2.759-.078l-4.976.878,2.454,13.928m3.439-13.037a3.815,3.815,0,0,1,.888.1,2.029,2.029,0,0,1,1.108.706,2.944,2.944,0,0,1,.543,1.315,2.826,2.826,0,0,1-.061,1.4,1.964,1.964,0,0,1-.8,1.009,4.167,4.167,0,0,1-1.608.582l-2.645.466-.89-5.033,2.643-.466a3.915,3.915,0,0,1,.818-.086m480.456,13.009,2.112-.374-1.068-6.063,5.911-1.044-.321-1.812-5.907,1.044-.748-4.229,6.532-1.149-.321-1.824-8.647,1.524,2.458,13.927m-357.594-.917,2.115-.374-1.068-6.066,5.907-1.041-.317-1.812-5.91,1.041-.744-4.229,6.527-1.15-.32-1.823-8.645,1.523,2.455,13.931m242.261-.07,2.243-.4.625-3.908,5.428-.956,1.922,3.457,2.243-.4-7.463-13.046-2.451.434-2.547,14.81m4.275-12.492,3.1,5.569-4.2.741,1-6.292.106-.018m-361.865,11.572,2.243-.4.624-3.9,5.424-.956,1.923,3.457,2.246-.4-7.463-13.046-2.451.43-2.546,14.81m4.274-12.492,3.1,5.569-4.2.744,1-6.292.109-.021m479.543,12.478,8.419-1.481-.321-1.823-6.3,1.111-2.134-12.108-2.116.374,2.455,13.928m-357.591-.917,8.419-1.485-.321-1.823-6.3,1.111-2.137-12.1-2.112.374,2.454,13.928m245.492-.638,2.112-.374-1.068-6.066,5.911-1.041-.321-1.812-5.907,1.041-.747-4.226,6.531-1.153-.324-1.823-8.645,1.523,2.458,13.932m242.185-.057,2.115-.374-.927-5.255,2.86-.5c.038-.007.077-.018.116-.025l3.76,4.762,2.405-.427-4.077-5.093c.12-.071.243-.138.359-.219a3.69,3.69,0,0,0,1.358-1.785,4.632,4.632,0,0,0,.145-2.37,4.725,4.725,0,0,0-.942-2.2,3.747,3.747,0,0,0-1.9-1.242,5.967,5.967,0,0,0-2.754-.077l-4.98.878,2.459,13.928m3.438-13.037a3.778,3.778,0,0,1,.885.1,2.024,2.024,0,0,1,1.107.706,2.89,2.89,0,0,1,.543,1.315,2.814,2.814,0,0,1-.056,1.4,1.96,1.96,0,0,1-.8,1.008,4.156,4.156,0,0,1-1.607.582l-2.646.466-.889-5.033,2.638-.465a3.973,3.973,0,0,1,.822-.086m-123.05,12.8,8.821-1.555-.321-1.823-6.708,1.181-.748-4.243,6.169-1.086-.317-1.812-6.169,1.086-.747-4.225,6.63-1.171-.32-1.823-8.747,1.544,2.458,13.928m-480.167-.631,2.116-.374-1.069-6.066,5.908-1.041-.317-1.812-5.911,1.044-.744-4.229,6.528-1.15-.321-1.823-8.645,1.523,2.455,13.928m242.188-.056,2.112-.371-.928-5.258,2.864-.5c.039,0,.077-.018.116-.021l3.756,4.758,2.409-.423-4.081-5.093c.124-.071.247-.141.363-.219a3.7,3.7,0,0,0,1.358-1.788,4.628,4.628,0,0,0,.145-2.37,4.786,4.786,0,0,0-.941-2.194,3.751,3.751,0,0,0-1.9-1.242,5.931,5.931,0,0,0-2.755-.081l-4.979.878,2.458,13.928m3.435-13.035a3.91,3.91,0,0,1,.89.1,2.069,2.069,0,0,1,1.107.705,2.962,2.962,0,0,1,.543,1.316,2.842,2.842,0,0,1-.061,1.407,1.948,1.948,0,0,1-.793,1,4.191,4.191,0,0,1-1.608.582l-2.648.465-.886-5.033,2.639-.465a4.046,4.046,0,0,1,.817-.084m-123.049,12.8,8.82-1.555-.32-1.82-6.705,1.181-.748-4.246,6.169-1.086-.321-1.813-6.168,1.09-.744-4.229,6.63-1.167-.32-1.823-8.747,1.541,2.455,13.928m245.915-.712,2.112-.374-1.068-6.066,5.911-1.041-.321-1.813-5.907,1.044-.747-4.229,6.531-1.15-.324-1.823-8.645,1.523,2.458,13.928m242.258-.071,2.247-.395.621-3.9,5.428-.959,1.922,3.46,2.243-.4-7.459-13.046-2.451.434-2.551,14.809m4.278-12.492,3.093,5.569-4.2.74,1-6.288.109-.021m-604.13,11.646,2.116-.374-1.069-6.066,5.908-1.044-.317-1.81-5.911,1.041-.744-4.229,6.528-1.15-.321-1.823-8.645,1.523,2.455,13.931m242.262-.071,2.243-.395.624-3.908,5.428-.956,1.922,3.457,2.243-.4-7.463-13.046-2.451.434-2.546,14.809m4.274-12.492,3.1,5.569-4.2.74,1-6.292.106-.018m121.952,11.558,8.419-1.485-.321-1.82-6.3,1.111-2.134-12.108-2.115.374,2.454,13.927m245.492-.638,2.116-.374-1.072-6.066,5.911-1.041-.321-1.813-5.907,1.044-.747-4.229,6.531-1.15-.321-1.823-8.644,1.523,2.454,13.928m-603.083-.279,8.419-1.485-.321-1.823-6.3,1.111-2.138-12.1-2.112.374,2.454,13.927m245.492-.638,2.113-.374-1.069-6.066,5.911-1.041-.32-1.813-5.908,1.041-.747-4.225,6.528-1.153-.321-1.823-8.645,1.523,2.458,13.931m242.185-.057,2.116-.374-.928-5.255,2.86-.5c.039-.007.077-.018.116-.025l3.756,4.761,2.409-.427-4.077-5.093c.12-.07.243-.138.359-.219a3.69,3.69,0,0,0,1.358-1.785,4.63,4.63,0,0,0,.145-2.37,4.777,4.777,0,0,0-.941-2.2,3.772,3.772,0,0,0-1.9-1.241,5.965,5.965,0,0,0-2.755-.078l-4.979.878,2.458,13.927m3.436-13.037a3.83,3.83,0,0,1,.889.1,2.027,2.027,0,0,1,1.107.705,2.9,2.9,0,0,1,.543,1.315,2.826,2.826,0,0,1-.057,1.4,1.984,1.984,0,0,1-.8,1.009,4.191,4.191,0,0,1-1.608.582l-2.646.465-.889-5.033,2.639-.466a3.948,3.948,0,0,1,.818-.086m-123.047,12.8,8.821-1.556-.321-1.823-6.708,1.182-.748-4.243,6.169-1.086-.317-1.813-6.169,1.086-.747-4.225,6.63-1.171-.32-1.824-8.747,1.542,2.458,13.931m-237.983-.688,2.116-.37-.928-5.259,2.86-.5c.043-.007.081-.018.12-.024l3.756,4.761,2.409-.423-4.08-5.093c.123-.074.246-.141.363-.219a3.7,3.7,0,0,0,1.357-1.788,4.619,4.619,0,0,0,.145-2.37,4.745,4.745,0,0,0-.945-2.194,3.723,3.723,0,0,0-1.894-1.241,5.939,5.939,0,0,0-2.755-.081l-4.979.878,2.454,13.928m3.434-13.036a3.96,3.96,0,0,1,.895.1,2.066,2.066,0,0,1,1.107.706,2.949,2.949,0,0,1,.543,1.315,2.853,2.853,0,0,1-.06,1.407,1.957,1.957,0,0,1-.8,1.005,4.162,4.162,0,0,1-1.608.582l-2.645.466-.886-5.033,2.639-.466a3.892,3.892,0,0,1,.813-.085m480.462,13.008,2.116-.37-1.072-6.066,5.911-1.044-.321-1.809-5.907,1.041-.747-4.229,6.531-1.149-.321-1.824-8.644,1.524,2.454,13.927m-603.506-.2,8.82-1.556-.32-1.823-6.705,1.185-.747-4.243,6.168-1.089-.32-1.813-6.169,1.09-.744-4.229,6.631-1.167-.321-1.824-8.747,1.542,2.455,13.928m245.915-.713,2.113-.374-1.069-6.066,5.911-1.041-.32-1.812-5.908,1.044-.747-4.229,6.531-1.153-.32-1.82-8.648,1.524,2.458,13.927m242.259-.07,2.246-.4.621-3.9,5.428-.959,1.922,3.46,2.243-.4-7.459-13.046-2.451.43-2.55,14.81m4.277-12.492,3.094,5.569-4.2.744,1-6.292.109-.021m-361.868,11.575,2.243-.4.624-3.908,5.428-.956,1.922,3.457,2.243-.4-7.463-13.046-2.451.434-2.546,14.81m4.274-12.492,3.1,5.569-4.2.741,1-6.292.105-.018m479.543,12.478,8.419-1.485-.321-1.823-6.3,1.111-2.134-12.1-2.115.37,2.454,13.931m-357.591-.92,8.419-1.485-.321-1.82-6.3,1.111-2.134-12.108-2.116.374,2.454,13.928m245.492-.638,2.116-.374-1.072-6.066,5.911-1.041-.32-1.812-5.908,1.044-.747-4.229,6.531-1.149-.32-1.824-8.645,1.524,2.454,13.928m122.573-.29,8.821-1.555-.321-1.823-6.7,1.185-.752-4.246,6.173-1.086-.321-1.812-6.169,1.089-.744-4.229,6.627-1.171-.32-1.823-8.747,1.544,2.458,13.928m-480.163-.627,2.112-.374-1.068-6.066,5.911-1.041-.321-1.812-5.907,1.041-.748-4.226,6.532-1.153-.325-1.823-8.645,1.523,2.459,13.932m242.184-.057,2.112-.374-.924-5.258,2.86-.5c.039,0,.077-.014.116-.021l3.756,4.762,2.409-.427-4.077-5.093c.12-.071.243-.138.36-.219a3.712,3.712,0,0,0,1.357-1.785,4.633,4.633,0,0,0,.145-2.374,4.778,4.778,0,0,0-.941-2.194,3.751,3.751,0,0,0-1.9-1.242,5.919,5.919,0,0,0-2.755-.077l-4.979.878,2.458,13.928m3.441-13.038a3.878,3.878,0,0,1,.883.1,2.065,2.065,0,0,1,1.107.705,2.948,2.948,0,0,1,.543,1.319,2.875,2.875,0,0,1-.057,1.4,1.975,1.975,0,0,1-.8,1,4.128,4.128,0,0,1-1.608.585l-2.646.466-.889-5.033,2.639-.465a3.945,3.945,0,0,1,.824-.087m-123.052,12.8,8.82-1.555-.321-1.823-6.708,1.181-.747-4.243,6.168-1.086-.317-1.812-6.168,1.086-.748-4.225,6.631-1.171-.321-1.823-8.747,1.541,2.459,13.931m-237.983-.687,2.116-.371-.928-5.258,2.86-.5c.042-.007.081-.018.119-.025l3.757,4.761,2.408-.423-4.08-5.1c.123-.07.247-.137.363-.215a3.693,3.693,0,0,0,1.357-1.788,4.619,4.619,0,0,0,.145-2.37,4.731,4.731,0,0,0-.945-2.194,3.72,3.72,0,0,0-1.894-1.242,5.938,5.938,0,0,0-2.755-.081l-4.979.878,2.455,13.928m3.433-13.036a3.954,3.954,0,0,1,.895.1,2.065,2.065,0,0,1,1.107.705,2.94,2.94,0,0,1,.543,1.316,2.842,2.842,0,0,1-.06,1.407,1.954,1.954,0,0,1-.8,1,4.172,4.172,0,0,1-1.605.582l-2.648.465-.885-5.033,2.638-.465a3.9,3.9,0,0,1,.813-.085m480.462,13.011,2.116-.374-1.072-6.066,5.911-1.044-.32-1.81-5.908,1.041-.747-4.229,6.531-1.15-.32-1.823-8.645,1.523,2.454,13.931m-357.59-.92,2.112-.374-1.068-6.066,5.911-1.041-.321-1.813-5.907,1.044-.748-4.229,6.532-1.153-.325-1.823-8.645,1.527,2.459,13.928m242.258-.071,2.246-.395.621-3.9,5.428-.959,1.922,3.457,2.243-.4-7.463-13.046-2.451.434-2.546,14.809m4.278-12.492,3.093,5.569-4.2.74,1-6.288.109-.021m-361.869,11.575,2.243-.395.624-3.908,5.428-.956,1.923,3.457,2.243-.4-7.463-13.046-2.451.431-2.547,14.813m4.274-12.492,3.1,5.569-4.2.74,1-6.292.109-.018m479.543,12.479,8.419-1.485-.321-1.824-6.3,1.111-2.134-12.1-2.116.371,2.454,13.931m-357.59-.921,8.418-1.485-.32-1.82-6.3,1.111-2.138-12.108-2.112.374,2.455,13.927m245.492-.638,2.116-.374-1.072-6.066,5.911-1.041-.321-1.813-5.907,1.044-.748-4.229,6.532-1.153-.325-1.823-8.645,1.527,2.459,13.928m122.573-.289,8.82-1.556-.321-1.823-6.708,1.185-.747-4.247,6.168-1.086-.317-1.813-6.168,1.09-.744-4.229,6.63-1.171-.324-1.82-8.747,1.542,2.459,13.928m-480.168-.631,2.116-.371-1.068-6.066,5.911-1.044-.321-1.81-5.911,1.041-.744-4.229,6.528-1.15-.321-1.823-8.644,1.523,2.454,13.928m242.188-.053,2.116-.374-.928-5.255,2.86-.5c.039-.007.078-.018.116-.025l3.757,4.761,2.408-.427-4.077-5.093c.12-.07.244-.138.36-.219a3.7,3.7,0,0,0,1.357-1.785,4.621,4.621,0,0,0,.145-2.37,4.756,4.756,0,0,0-.941-2.2,3.746,3.746,0,0,0-1.9-1.241,5.918,5.918,0,0,0-2.755-.078l-4.979.878,2.458,13.927m3.437-13.037a3.816,3.816,0,0,1,.888.1,2.037,2.037,0,0,1,1.107.7,2.951,2.951,0,0,1,.543,1.319,2.862,2.862,0,0,1-.057,1.4,1.971,1.971,0,0,1-.8,1.005,4.136,4.136,0,0,1-1.608.585l-2.645.465-.889-5.033,2.638-.466a3.965,3.965,0,0,1,.819-.086m-123.051,12.8,8.824-1.552-.32-1.823-6.708,1.182-.748-4.243,6.168-1.089-.317-1.81-6.172,1.086-.744-4.225,6.631-1.171-.321-1.824-8.746,1.542,2.454,13.928m-237.979-.685,2.116-.374-.928-5.255,2.86-.5c.042-.007.081-.018.12-.024l3.756,4.761,2.409-.423-4.081-5.1c.123-.071.247-.138.363-.219a3.69,3.69,0,0,0,1.357-1.785,4.619,4.619,0,0,0,.146-2.37,4.755,4.755,0,0,0-.945-2.194,3.77,3.77,0,0,0-1.895-1.245,5.954,5.954,0,0,0-2.754-.078l-4.98.878,2.455,13.928m3.433-13.036a3.947,3.947,0,0,1,.895.1,2.066,2.066,0,0,1,1.107.706,2.938,2.938,0,0,1,.543,1.315,2.826,2.826,0,0,1-.06,1.4,1.945,1.945,0,0,1-.8,1.009,4.167,4.167,0,0,1-1.608.582l-2.646.466-.885-5.033,2.638-.466a3.906,3.906,0,0,1,.813-.085m480.463,13.008,2.116-.37-1.072-6.066,5.911-1.044-.321-1.812-5.907,1.044-.748-4.229,6.532-1.149-.321-1.824-8.648,1.524,2.459,13.927m-357.595-.917,2.116-.374-1.068-6.066,5.911-1.041-.321-1.812-5.911,1.041-.744-4.226,6.532-1.153-.325-1.823-8.644,1.527,2.454,13.927m242.262-.07,2.247-.4.62-3.9,5.428-.959,1.923,3.46,2.243-.4-7.463-13.046-2.451.434-2.547,14.81m4.274-12.492,3.1,5.569-4.2.741,1-6.289.105-.021m-361.865,11.575,2.243-.4.624-3.9,5.429-.956,1.918,3.457,2.247-.4-7.463-13.046-2.451.43-2.547,14.813m4.274-12.492,3.1,5.569-4.2.741,1-6.292.108-.018m479.544,12.475,8.418-1.481-.32-1.823-6.3,1.111-2.134-12.108-2.116.374,2.455,13.928m-357.591-.917,8.419-1.485-.321-1.82-6.3,1.111-2.137-12.108-2.113.374,2.455,13.928m245.492-.638,2.116-.374-1.072-6.066,5.911-1.041-.321-1.812-5.907,1.044-.748-4.229,6.532-1.153-.325-1.82-8.644,1.524,2.458,13.928m242.184-.057,2.116-.374-.928-5.255,2.86-.5c.039-.007.078-.018.116-.025l3.76,4.762,2.405-.423-4.077-5.1c.12-.071.244-.138.36-.219a3.682,3.682,0,0,0,1.357-1.785,4.619,4.619,0,0,0,.145-2.37,4.7,4.7,0,0,0-.941-2.194,3.764,3.764,0,0,0-1.894-1.245,5.99,5.99,0,0,0-2.759-.077l-4.976.878,2.454,13.928m3.434-13.036a3.96,3.96,0,0,1,.895.1,2.05,2.05,0,0,1,1.1.706,2.863,2.863,0,0,1,.543,1.315,2.826,2.826,0,0,1-.057,1.4,1.963,1.963,0,0,1-.8,1.008,4.16,4.16,0,0,1-1.608.582l-2.645.466-.889-5.033,2.642-.465a3.892,3.892,0,0,1,.813-.085m-123.044,12.8,8.82-1.555-.32-1.823-6.708,1.185-.748-4.246,6.168-1.086-.317-1.812-6.168,1.09-.748-4.229,6.631-1.171-.321-1.823-8.746,1.544,2.458,13.928m-480.168-.627,2.116-.374-1.068-6.066,5.907-1.044-.317-1.809-5.911,1.041-.744-4.229,6.528-1.15-.32-1.823-8.645,1.523,2.454,13.932m242.188-.057,2.113-.374-.924-5.258,2.859-.5c.039,0,.078-.014.117-.021l3.756,4.758,2.409-.423-4.077-5.093c.119-.071.243-.141.359-.219a3.708,3.708,0,0,0,1.358-1.785,4.643,4.643,0,0,0,.145-2.374,4.769,4.769,0,0,0-.942-2.194,3.747,3.747,0,0,0-1.9-1.242,5.915,5.915,0,0,0-2.754-.077l-4.98.875,2.458,13.931m3.442-13.038a3.869,3.869,0,0,1,.882.1,2.065,2.065,0,0,1,1.107.705,2.94,2.94,0,0,1,.543,1.316,2.875,2.875,0,0,1-.056,1.407,1.972,1.972,0,0,1-.8,1,4.07,4.07,0,0,1-1.607.582l-2.649.469-.885-5.037,2.638-.462a3.955,3.955,0,0,1,.825-.087m-123.057,12.8,8.825-1.559-.325-1.82-6.7,1.181-.748-4.243,6.169-1.09-.317-1.809-6.173,1.086-.744-4.229,6.631-1.167-.321-1.823-8.746,1.541,2.454,13.931m245.916-.716,2.116-.37-1.072-6.066,5.911-1.044-.321-1.81-5.907,1.041-.748-4.229,6.532-1.15-.325-1.823-8.644,1.523,2.458,13.928m242.262-.067,2.243-.4.62-3.9,5.428-.956,1.923,3.457,2.243-.4-7.46-13.046-2.451.43-2.546,14.813m4.274-12.5,3.093,5.573-4.2.741,1-6.292.109-.021m-604.131,11.646,2.116-.374-1.068-6.066,5.907-1.041-.317-1.813-5.911,1.041-.744-4.225,6.528-1.153-.32-1.823-8.645,1.527,2.454,13.928m242.262-.071,2.243-.395.624-3.9,5.429-.959,1.922,3.457,2.243-.4-7.463-13.046-2.451.434-2.547,14.809m4.274-12.492,3.1,5.569-4.2.74,1-6.292.105-.018m121.953,11.562,8.419-1.485-.321-1.824-6.3,1.111-2.134-12.1-2.116.371,2.455,13.931m245.492-.642,2.116-.37-1.069-6.066,5.908-1.044-.321-1.81-5.907,1.041-.748-4.229,6.532-1.15-.321-1.823-8.645,1.523,2.455,13.928m-603.083-.279,8.419-1.485-.321-1.82-6.3,1.111-2.137-12.108-2.113.374,2.455,13.927m245.492-.638,2.112-.374-1.068-6.066,5.911-1.041-.321-1.813-5.907,1.041-.748-4.225,6.528-1.153-.32-1.823-8.645,1.527,2.458,13.928m122.573-.289,8.821-1.556-.321-1.823-6.708,1.185-.748-4.247,6.169-1.086-.317-1.813-6.169,1.09-.748-4.229,6.635-1.171-.325-1.824-8.746,1.545,2.458,13.928m245.912-.712,2.116-.374-1.069-6.066,5.908-1.04-.317-1.813-5.911,1.041-.748-4.225,6.532-1.153-.321-1.824-8.645,1.524,2.455,13.931m-603.506-.208,8.824-1.556-.325-1.82-6.7,1.182-.748-4.243,6.169-1.089-.321-1.81-6.168,1.086-.744-4.229,6.63-1.167-.32-1.824-8.747,1.542,2.455,13.928m245.915-.713,2.112-.374-1.068-6.066,5.911-1.041-.321-1.812-5.907,1.044-.748-4.229,6.532-1.149-.321-1.824-8.647,1.524,2.458,13.927m368.488-1,8.416-1.485-.321-1.823-6.3,1.114-2.134-12.107-2.116.374,2.458,13.928m-357.594-.92,8.419-1.485-.321-1.82-6.3,1.111-2.134-12.108-2.116.374,2.455,13.928m368.065-.928,8.821-1.555-.321-1.82-6.705,1.181-.747-4.243,6.168-1.09-.32-1.809-6.169,1.086-.744-4.229,6.631-1.167-.325-1.823-8.743,1.541,2.455,13.928m-357.591-.917,8.821-1.555-.321-1.823-6.708,1.181-.748-4.243,6.169-1.086-.317-1.812-6.169,1.09-.747-4.229,6.63-1.171-.32-1.823-8.747,1.544,2.458,13.928m43.48,78.136-2.629-14.913,5.462-.963a6.5,6.5,0,0,1,2.98.085h.007a4.236,4.236,0,0,1,2.146,1.411l.006.008a5.259,5.259,0,0,1,1.043,2.413,5.128,5.128,0,0,1-.162,2.616l0,.01a4.145,4.145,0,0,1-1.45,1.961l3.545,4.424,2.547-14.811,3.144-.552.174.305,7.816,13.663-3.294.58-1.923-3.457-4.727.833-.624,3.9-3.294.585v0l-2.642.468-.186-.235-3.569-4.523-2.2.387.927,5.255Zm.967-12.659.712,4.048,2.169-.382a3.651,3.651,0,0,0,1.411-.509h0a1.457,1.457,0,0,0,.589-.741,2.334,2.334,0,0,0,.046-1.146l-.006-.03a2.45,2.45,0,0,0-.444-1.083,1.554,1.554,0,0,0-.828-.525,3.447,3.447,0,0,0-1.485-.014l-.018,0Zm14.868-.985-.687,4.335,2.822-.5Zm-373.426,12.728-.087-.493-2.542-14.424.492-.086,4.969-.876a6.417,6.417,0,0,1,2.983.089,4.22,4.22,0,0,1,2.151,1.409l.007.008a5.281,5.281,0,0,1,1.044,2.416,5.176,5.176,0,0,1-.167,2.613l0,.01a4.18,4.18,0,0,1-1.449,1.962l3.547,4.425,2.546-14.809,3.145-.556.174.306,7.816,13.663-3.3.58-1.922-3.457-4.724.833-.624,3.908-3.231.57-2.7.475-.186-.234-3.57-4.524-2.194.387.928,5.259Zm.963-12.66.715,4.048,2.173-.385a3.584,3.584,0,0,0,1.407-.508,1.454,1.454,0,0,0,.589-.736,2.311,2.311,0,0,0,.045-1.147l-.007-.036a2.377,2.377,0,0,0-.443-1.079,1.582,1.582,0,0,0-.828-.527,3.5,3.5,0,0,0-1.487-.013l-.013,0Zm14.872-.988-.689,4.335,2.821-.5Zm366.853,10.139-.087-.493-2.541-14.42.492-.086,9.135-1.61.5,2.808-6.533,1.15.574,3.244,5.907-1.041.5,2.793-5.912,1.044,1.068,6.063Zm242.188-.057-.087-.492-2.545-14.42.492-.086,4.97-.877a6.443,6.443,0,0,1,2.982.089,4.23,4.23,0,0,1,2.153,1.408l.009.01a5.23,5.23,0,0,1,1.038,2.413,5.124,5.124,0,0,1-.162,2.615l0,.009a4.167,4.167,0,0,1-1.449,1.963l3.543,4.425,2.547-14.81,3.144-.557,7.991,13.969-3.294.58-1.923-3.456-4.727.832-.62,3.908-.351.062-2.056.361h0l-3.533.62-.186-.234-3.571-4.522-2.19.387.924,5.258Zm.964-12.659.715,4.048,2.169-.381a3.714,3.714,0,0,0,1.41-.508h0a1.462,1.462,0,0,0,.59-.737,2.39,2.39,0,0,0,.043-1.15l-.006-.031a2.446,2.446,0,0,0-.444-1.083,1.561,1.561,0,0,0-.83-.525,3.5,3.5,0,0,0-1.486-.013l-.015,0Zm14.871-.981-.689,4.331,2.821-.5Zm-615.613,12.78-.087-.493-2.541-14.42,9.63-1.7.086.493.407,2.315-6.528,1.153.57,3.244,5.912-1.044.49,2.8-.492.087-5.415.954,1.068,6.066Zm242.185-.056-2.629-14.913.492-.086,4.972-.877a6.475,6.475,0,0,1,2.979.085l.008,0a4.246,4.246,0,0,1,2.146,1.411l.007.008a5.26,5.26,0,0,1,1.043,2.413,5.137,5.137,0,0,1-.163,2.615l0,.01a4.179,4.179,0,0,1-1.45,1.96l3.545,4.424,2.546-14.81.347-.061,2.8-.492.174.3,7.816,13.664-3.3.58-1.918-3.457-4.727.832-.624,3.9-3.294.585v0l-2.642.468-.186-.235-3.568-4.523-2.2.387.928,5.255Zm.967-12.659.712,4.048,2.172-.381a3.651,3.651,0,0,0,1.413-.512,1.446,1.446,0,0,0,.584-.738,2.334,2.334,0,0,0,.046-1.146l-.006-.031a2.418,2.418,0,0,0-.443-1.082,1.545,1.545,0,0,0-.829-.525,3.418,3.418,0,0,0-1.485-.015l-.018,0Zm14.869-.989-.688,4.338,2.822-.5Zm110.465,12.7-.087-.493-2.541-14.424.492-.087,9.135-1.61.5,2.808-6.533,1.15.574,3.244,5.907-1.041.5,2.8-5.912,1.041,1.068,6.065Zm-357.591-.92-.087-.493-2.541-14.42.492-.087,9.138-1.61.086.493.407,2.312-6.528,1.153.57,3.244,5.912-1.044.49,2.8-.492.087-5.415.953,1.068,6.066Zm368.489-1-.087-.492-2.542-14.419,3.1-.548,2.137,12.1,6.3-1.111.5,2.808-.492.086Zm245.492-.638-2.632-14.917.492-.087,9.135-1.61.5,2.808-6.533,1.153.574,3.241,5.907-1.041.5,2.8-5.912,1.041,1.072,6.065Zm-603.083-.283-2.632-14.912,3.1-.548,2.134,12.108,6.3-1.111.5,2.808-.493.086Zm245.488-.639-.087-.492-2.541-14.42.492-.087,9.138-1.61.493,2.808-.492.087-6.036,1.063.57,3.243,5.912-1.044.49,2.8-.492.087-5.415.953,1.068,6.07Zm242.188-.057-.087-.492-2.541-14.42.492-.086,4.969-.876a6.446,6.446,0,0,1,2.979.089,4.231,4.231,0,0,1,2.153,1.407l.008.009a5.223,5.223,0,0,1,1.04,2.415,5.131,5.131,0,0,1-.163,2.614l0,.01a4.175,4.175,0,0,1-1.449,1.963l3.543,4.425,2.549-14.809,3.145-.556.174.306,7.813,13.663-3.294.58-1.922-3.457-4.728.833-.62,3.908-.351.062-2.055.361h0l-3.53.622-.186-.234-3.572-4.524-2.192.387.927,5.26Zm.964-12.658.715,4.048,2.169-.382a3.646,3.646,0,0,0,1.413-.51,1.477,1.477,0,0,0,.588-.737,2.358,2.358,0,0,0,.042-1.149l-.006-.035a2.371,2.371,0,0,0-.442-1.077,1.579,1.579,0,0,0-.827-.527,3.422,3.422,0,0,0-1.484-.014l-.018,0Zm14.872-.986-.69,4.335,2.822-.5Zm-135.45,13.411-.087-.492-2.541-14.42.492-.087,9.238-1.628.5,2.808-.492.087-6.139,1.081.571,3.244,6.173-1.09.49,2.8-.492.086-5.677,1,.574,3.259,6.7-1.182.5,2.8-.493.087Zm-237.979-.684-.087-.492-2.542-14.42.492-.086,4.97-.877a6.487,6.487,0,0,1,2.98.086h.006a4.191,4.191,0,0,1,2.148,1.412l.006.007a5.265,5.265,0,0,1,1.043,2.413,5.148,5.148,0,0,1-.162,2.616l0,.011a4.2,4.2,0,0,1-1.451,1.96l3.544,4.423,2.547-14.809,3.145-.556.174.306,7.816,13.662-3.3.585-1.918-3.46-4.726.835-.625,3.9-5.935,1.048-.186-.235-3.568-4.524-2.2.387.928,5.255Zm.963-12.658.715,4.048,2.17-.382a3.654,3.654,0,0,0,1.416-.512,1.45,1.45,0,0,0,.584-.737,2.339,2.339,0,0,0,.047-1.146l0-.029a2.443,2.443,0,0,0-.444-1.083,1.555,1.555,0,0,0-.831-.527,3.4,3.4,0,0,0-1.484-.014l-.018,0Zm14.874-.989-.688,4.338,2.822-.5Zm468.059,13.619-2.632-14.912.492-.087,9.14-1.61.5,2.8-6.532,1.153.574,3.245,5.907-1.044.5,2.8-5.912,1.041,1.072,6.066Zm-603.506-.2-.087-.492-2.542-14.424.492-.086,9.24-1.628.493,2.808-6.63,1.171.57,3.241,6.168-1.086.5,2.8-6.17,1.086.574,3.258,6.7-1.182.5,2.808Zm245.911-.712-.087-.493-2.541-14.424.492-.087,9.138-1.61.493,2.808-6.528,1.153.571,3.241,5.911-1.04.49,2.793-5.907,1.044,1.068,6.067Zm368.489-1.005-.087-.492-2.542-14.42,3.1-.548,2.134,12.108,6.3-1.111.5,2.8-.492.086Zm-357.591-.917-.087-.492-2.542-14.42,3.1-.548,2.137,12.1,6.3-1.111.5,2.808-.492.086Zm245.492-.638-.087-.493-2.542-14.424.492-.087,9.137-1.61.5,2.808-6.532,1.153.574,3.241,5.907-1.041.5,2.8-5.908,1.041,1.068,6.066Zm122.573-.29-2.632-14.916.492-.087,9.238-1.627.5,2.808-6.63,1.171.573,3.241,6.17-1.086.49,2.8-.492.087-5.677,1,.574,3.258,6.708-1.181.5,2.808-.492.086Zm-480.167-.631-.087-.492-2.542-14.42.492-.087,9.137-1.61.5,2.808-.492.087-6.036,1.063.57,3.244,5.912-1.044.49,2.8-.492.086-5.416.957,1.069,6.063Zm242.188-.057-.087-.492-2.546-14.42,5.466-.964a6.447,6.447,0,0,1,2.979.09,4.231,4.231,0,0,1,2.153,1.408l.009.01a5.289,5.289,0,0,1,1.039,2.412,5.146,5.146,0,0,1-.162,2.615l0,.011a4.183,4.183,0,0,1-1.449,1.963l3.542,4.424,2.548-14.813.346-.061,2.8-.491.174.305,7.816,13.664-3.294.58-1.922-3.457-4.727.832-.625,3.908-2.4.422h0l-3.535.62-.185-.234-3.567-4.522-2.193.387.924,5.258Zm.963-12.658.712,4.048,2.173-.381a3.711,3.711,0,0,0,1.416-.512,1.492,1.492,0,0,0,.584-.735,2.4,2.4,0,0,0,.043-1.148l0-.03a2.475,2.475,0,0,0-.445-1.083,1.558,1.558,0,0,0-.833-.526,3.431,3.431,0,0,0-1.481-.013l-.018,0Zm14.871-.982-.688,4.332,2.821-.5Zm-135.448,13.408-.087-.492-2.542-14.42.492-.086,9.24-1.628.493,2.808-.492.087-6.138,1.081.571,3.244,6.167-1.086.5,2.793-6.17,1.09.574,3.258,6.7-1.181.5,2.8-.493.087Zm-237.98-.684-.087-.493-2.541-14.42,5.462-.964a6.487,6.487,0,0,1,2.98.086h.006a4.21,4.21,0,0,1,2.147,1.408l.007.009a5.281,5.281,0,0,1,1.042,2.415,5.13,5.13,0,0,1-.166,2.616l0,.008a4.152,4.152,0,0,1-1.448,1.962l3.545,4.424,2.546-14.81,3.145-.552.174.305,7.816,13.664-3.3.58-.174-.312-1.749-3.148-4.723.835-.624,3.9-5.936,1.048-.186-.235-3.568-4.523-2.2.388.928,5.254Zm.967-12.659.713,4.048,2.168-.381a3.653,3.653,0,0,0,1.416-.512,1.469,1.469,0,0,0,.584-.737,2.38,2.38,0,0,0,.046-1.15l0-.027a2.437,2.437,0,0,0-.443-1.083,1.54,1.54,0,0,0-.829-.525,3.393,3.393,0,0,0-1.485-.015l-.018,0Zm14.869-.99-.69,4.339,2.825-.5Zm468.06,13.621-2.629-14.913,9.629-1.7.5,2.808-6.532,1.153.574,3.244,5.907-1.044.5,2.8-5.908,1.041,1.068,6.065Zm-357.594-.921-.087-.492-2.542-14.42.492-.086,9.137-1.61.5,2.808-.492.086-6.036,1.063.571,3.244,5.911-1.041.49,2.794-5.908,1.044,1.069,6.067Zm368.492-1-2.633-14.912,3.1-.548,2.134,12.108,6.3-1.111.5,2.8-.492.086Zm-357.595-.917-.087-.492-2.541-14.419,3.1-.548,2.138,12.1,6.3-1.111.5,2.808-.492.086Zm245.492-.642-.087-.492-2.545-14.42.492-.086,9.137-1.61.5,2.808-.492.086-6.036,1.063.573,3.244,5.908-1.041.494,2.794-5.911,1.044,1.069,6.066Zm122.573-.289-.087-.492-2.541-14.42.492-.086,9.236-1.628.493,2.808-6.627,1.171.57,3.241,6.169-1.086.494,2.793-6.171,1.09.577,3.259,6.7-1.182.5,2.808-.492.086Zm-480.167-.627-2.629-14.913.492-.086,9.137-1.61.5,2.808-.492.087-6.036,1.063.57,3.243,5.912-1.044.49,2.8-.492.087-5.415.953,1.068,6.066Zm242.184-.057-.087-.492-2.541-14.42.492-.086,4.97-.876a6.49,6.49,0,0,1,2.98.085l.007,0a4.261,4.261,0,0,1,2.148,1.409l.009.011a5.288,5.288,0,0,1,1.038,2.411,5.128,5.128,0,0,1-.162,2.616l0,.011a4.153,4.153,0,0,1-1.451,1.961l3.545,4.427,2.546-14.814,3.145-.552.174.305,7.816,13.663-3.294.58-.174-.311-1.748-3.146-4.727.833-.624,3.9-2.4.427h0l-.893.158h0l-2.643.464-.185-.234-3.568-4.524-2.2.387.932,5.256Zm.967-12.659.712,4.048,2.169-.382a3.716,3.716,0,0,0,1.415-.509,1.462,1.462,0,0,0,.585-.741,2.335,2.335,0,0,0,.047-1.146l-.006-.03a2.445,2.445,0,0,0-.443-1.083,1.573,1.573,0,0,0-.829-.525,3.42,3.42,0,0,0-1.485-.015l-.018,0Zm14.872-.981-.689,4.331,2.821-.5Zm-135.449,13.407-.087-.492-2.542-14.42.492-.087,9.239-1.628.5,2.808-.492.087-6.139,1.081.571,3.244,6.167-1.09.5,2.8-6.169,1.086.574,3.261,6.705-1.185.086.493.407,2.315-.492.086Zm-237.98-.684-.087-.493-2.541-14.42.492-.086,4.968-.876a6.507,6.507,0,0,1,2.981.085l.007,0a4.2,4.2,0,0,1,2.148,1.412l0,.006a5.257,5.257,0,0,1,1.043,2.413,5.125,5.125,0,0,1-.165,2.616l0,.01a4.177,4.177,0,0,1-1.448,1.961l3.544,4.424,2.546-14.81,3.145-.556.174.306,7.816,13.662-3.3.585-.174-.312-1.748-3.148-4.724.835-.624,3.9-5.935,1.048-.186-.235-3.569-4.523-2.2.387.927,5.255Zm.964-12.659.715,4.048,2.17-.382a3.589,3.589,0,0,0,1.412-.514,1.455,1.455,0,0,0,.588-.735,2.3,2.3,0,0,0,.043-1.142l-.007-.039a2.353,2.353,0,0,0-.443-1.079,1.519,1.519,0,0,0-.825-.525,3.416,3.416,0,0,0-1.485-.015l-.018,0Zm14.872-.988-.69,4.335,2.822-.5Zm468.06,13.619-2.632-14.912,9.634-1.7.086.493.407,2.315-6.531,1.153.573,3.241,5.908-1.04.494,2.8-.492.087-5.419.954,1.069,6.066Zm-357.594-.917-.087-.492-2.542-14.424.492-.086,9.137-1.61.5,2.808-.492.087-6.036,1.063.571,3.244,5.911-1.04.49,2.793-5.907,1.044,1.068,6.066Zm368.488-1-.087-.492-2.541-14.42,3.1-.548,2.134,12.108,6.3-1.111.5,2.8-.492.086Zm-357.59-.917-2.633-14.917,3.1-.543,2.138,12.1,6.3-1.111.493,2.808-.492.086Zm245.491-.638-2.632-14.917.492-.086,9.137-1.61.5,2.808-6.532,1.15.573,3.244,5.908-1.041.494,2.793-5.91,1.044,1.068,6.066Zm242.185-.057-2.632-14.917.492-.087,4.971-.873a6.464,6.464,0,0,1,1.314-.135,6.389,6.389,0,0,1,1.667.221,4.229,4.229,0,0,1,2.153,1.408l.01.012a5.291,5.291,0,0,1,1.037,2.415,5.127,5.127,0,0,1-.162,2.615l0,.012a4.186,4.186,0,0,1-1.449,1.958l3.543,4.426,2.546-14.81,3.144-.557,7.991,13.969-3.294.58-1.922-3.457-4.727.835-.621,3.9-5.938,1.049-.186-.235-3.57-4.526-2.19.387.928,5.258Zm.963-12.659.715,4.048,2.173-.385a3.583,3.583,0,0,0,1.41-.51,1.467,1.467,0,0,0,.587-.735,2.39,2.39,0,0,0,.043-1.146l-.006-.031a2.379,2.379,0,0,0-.441-1.079,1.542,1.542,0,0,0-.832-.532,3.451,3.451,0,0,0-1.484-.011l-.018,0Zm14.873-.989-.69,4.335,2.822-.5Zm-135.446,13.416-2.633-14.917.492-.087,9.239-1.627.5,2.808-.492.086-6.139,1.081.574,3.244,6.169-1.086.49,2.793-6.168,1.09.573,3.258,6.708-1.181.5,2.8Zm-480.168-.631-2.629-14.913.492-.087,9.137-1.61.5,2.808-.492.087-6.036,1.063.571,3.244,5.911-1.044.49,2.8-.492.087-5.415.954,1.068,6.066Zm242.184-.057-.087-.492-2.541-14.42.492-.086,4.97-.877a6.423,6.423,0,0,1,2.982.089,4.207,4.207,0,0,1,2.151,1.409l.006.007a5.252,5.252,0,0,1,1.043,2.413,5.139,5.139,0,0,1-.162,2.616l0,.01a4.143,4.143,0,0,1-1.453,1.962l3.546,4.426,2.546-14.814.347-.061,2.8-.492.174.305,7.816,13.664-3.293.58-1.923-3.457-4.727.832-.624,3.908-.351.062-2.052.36h0l-3.533.62-.186-.234-3.569-4.523-2.2.387.927,5.259Zm.967-12.658.713,4.048,2.172-.381a3.652,3.652,0,0,0,1.412-.512,1.457,1.457,0,0,0,.585-.734,2.365,2.365,0,0,0,.046-1.149l0-.03a2.465,2.465,0,0,0-.444-1.083,1.558,1.558,0,0,0-.83-.525,3.415,3.415,0,0,0-1.484-.014l-.018,0Zm14.872-.981-.689,4.331,2.821-.5Zm-135.449,13.407-.087-.492-2.541-14.42,9.73-1.719.5,2.809-6.631,1.171.571,3.244,6.168-1.09.494,2.8-.492.087-5.676,1,.573,3.261,6.705-1.185.5,2.809-.492.086Zm245.916-.712-2.633-14.913,9.628-1.7.5,2.808-6.532,1.153.573,3.241,5.908-1.041.494,2.8-.492.087-5.418.954,1.068,6.065Zm-357.595-.921-.087-.492-2.542-14.42.492-.087,9.137-1.61.5,2.808-.492.087-6.036,1.063.571,3.244,5.911-1.041.49,2.794-5.907,1.044,1.068,6.067Zm368.489-1-.087-.492-2.542-14.419,3.1-.548,2.138,12.108,6.3-1.111.494,2.8-.492.086Zm245.492-.638-2.633-14.913.492-.086,9.141-1.61.494,2.8-6.531,1.153.573,3.244,5.908-1.043.494,2.8-.492.087-5.418.954,1.071,6.065Zm-603.083-.279-2.633-14.917,3.1-.542.087.492,2.047,11.612,6.308-1.111.493,2.808-.492.086Zm245.492-.638-2.633-14.917.492-.087,9.137-1.61.5,2.808-.492.087-6.036,1.063.574,3.244,5.907-1.041.5,2.794-5.912,1.044,1.068,6.066Zm242.184-.057L13890,4410.8l.492-.086,4.97-.877a6.445,6.445,0,0,1,2.982.085,4.235,4.235,0,0,1,2.153,1.408l.01.011a5.289,5.289,0,0,1,1.038,2.413,5.144,5.144,0,0,1-.163,2.617l0,.011a4.177,4.177,0,0,1-1.449,1.959l3.543,4.425,2.546-14.81,3.145-.556.174.306,7.816,13.663-3.293.58-1.923-3.457-4.727.835-.621,3.9-.351.062-2.885.507-2.7.479-.186-.235-3.571-4.526-2.19.386.928,5.258Zm.963-12.661.716,4.05,2.172-.385a3.594,3.594,0,0,0,1.411-.51,1.482,1.482,0,0,0,.586-.735,2.376,2.376,0,0,0,.043-1.146l-.006-.032a2.443,2.443,0,0,0-.444-1.086,1.552,1.552,0,0,0-.831-.525,3.438,3.438,0,0,0-1.483-.01l-.018,0Zm14.873-.986-.69,4.335,2.822-.5Zm-135.446,13.411-2.632-14.912.492-.087,9.238-1.628.5,2.808-.492.087-6.139,1.081.574,3.244,6.169-1.086.49,2.793-6.168,1.09.573,3.259,6.709-1.182.494,2.8-.492.086Zm-237.983-.684-.087-.492-2.542-14.42.492-.086,4.973-.877a6.5,6.5,0,0,1,2.978.086l.007,0a4.232,4.232,0,0,1,2.146,1.41l.007.008a5.25,5.25,0,0,1,1.042,2.413,5.139,5.139,0,0,1-.162,2.616l0,.01a4.174,4.174,0,0,1-1.451,1.961l3.544,4.427,2.548-14.814,3.144-.552.174.305,7.816,13.663-3.294.58-1.923-3.457-4.727.833-.624,3.9-2.4.427h0l-.893.158h0l-2.642.464-.185-.235-3.568-4.524-2.2.387.928,5.255Zm.967-12.659.712,4.048,2.169-.382a3.641,3.641,0,0,0,1.413-.51,1.454,1.454,0,0,0,.587-.74,2.334,2.334,0,0,0,.046-1.146l0-.03a2.447,2.447,0,0,0-.445-1.083,1.553,1.553,0,0,0-.829-.525,3.436,3.436,0,0,0-1.484-.014l-.018,0Zm14.869-.987-.688,4.337,2.822-.5Zm468.06,13.618-2.633-14.913.492-.087,9.142-1.61.493,2.809-.492.087-6.039,1.063.573,3.244,5.908-1.041.494,2.793-5.91,1.044,1.071,6.063Zm-603.507-.2-.087-.492-2.541-14.42.492-.086,9.238-1.628.5,2.809-.492.087-6.139,1.08.57,3.244,6.169-1.089.5,2.8-6.17,1.086.574,3.261,6.7-1.185.5,2.809-.492.086Zm245.916-.712-2.633-14.912,9.628-1.7.5,2.808-6.533,1.153.574,3.241,5.907-1.04.5,2.8-5.912,1.041,1.068,6.066Zm368.485-1-.087-.492-2.542-14.424,3.1-.542.086.492,2.047,11.612,6.3-1.111.493,2.808-.492.086Zm-357.591-.92-.087-.492-2.542-14.42,3.1-.548,2.138,12.108,6.3-1.111.494,2.8-.492.086Zm245.492-.638-2.633-14.913,9.628-1.7.5,2.808-6.533,1.153.574,3.241,5.907-1.041.5,2.8-5.912,1.041,1.072,6.066Zm122.573-.29-2.632-14.912,9.73-1.719.5,2.808-6.627,1.171.57,3.244,6.169-1.089.49,2.8-.492.087-5.676,1,.574,3.261,6.709-1.185.493,2.808-.492.086Zm-480.168-.632-.087-.492-2.541-14.42.492-.087,9.138-1.61.493,2.808-.492.087-6.036,1.063.57,3.244,5.912-1.044.49,2.8-5.907,1.044,1.068,6.067Zm242.188-.052-2.632-14.916,5.464-.964a6.516,6.516,0,0,1,1.306-.132,6.422,6.422,0,0,1,1.675.222,4.231,4.231,0,0,1,2.153,1.408l.009.01a5.233,5.233,0,0,1,1.038,2.414,5.122,5.122,0,0,1-.162,2.615l0,.009a4.171,4.171,0,0,1-1.448,1.963l3.542,4.426,2.547-14.81,3.144-.557,7.991,13.969-3.294.58-1.923-3.457-4.727.832-.62,3.908-.351.062-2.056.361h0l-3.534.62-3.755-4.757-2.191.387.925,5.258Zm.964-12.66.715,4.049,2.172-.385a3.654,3.654,0,0,0,1.413-.512,1.462,1.462,0,0,0,.584-.734,2.389,2.389,0,0,0,.043-1.149l-.006-.031a2.436,2.436,0,0,0-.443-1.082,1.556,1.556,0,0,0-.832-.526,3.5,3.5,0,0,0-1.486-.013l-.013,0Zm14.871-.984-.689,4.331,2.821-.5Zm-135.449,13.407-.087-.492-2.541-14.42.492-.086,9.238-1.628.5,2.808-.492.087-6.139,1.081.571,3.244,6.173-1.086.49,2.793-6.169,1.09.574,3.258,6.708-1.181.494,2.8-.492.087Zm-237.979-.684-2.629-14.913,5.463-.964a6.486,6.486,0,0,1,2.979.085h.006a4.2,4.2,0,0,1,2.148,1.412l.006.007a5.263,5.263,0,0,1,1.043,2.413,5.146,5.146,0,0,1-.162,2.615l0,.011a4.19,4.19,0,0,1-1.451,1.96l3.545,4.424,2.547-14.81.346-.061,2.8-.491.174.305,7.816,13.664-3.3.58-1.918-3.459-4.726.834-.625,3.9-3.294.585v0l-2.642.468-.186-.235-3.568-4.523-2.2.388.928,5.254Zm.967-12.659.712,4.048,2.173-.381a3.646,3.646,0,0,0,1.412-.512,1.451,1.451,0,0,0,.584-.738,2.309,2.309,0,0,0,.046-1.145l-.006-.032a2.428,2.428,0,0,0-.442-1.082,1.549,1.549,0,0,0-.83-.526,3.432,3.432,0,0,0-1.485-.015l-.018,0Zm14.87-.986-.688,4.335,2.821-.5Zm468.059,13.616-.087-.492-2.545-14.42.492-.087,9.135-1.61.5,2.808-6.533,1.15.574,3.244,5.907-1.044.5,2.8-5.912,1.041,1.072,6.07Zm-357.595-.916-.087-.493-2.541-14.424.492-.086,9.138-1.61.493,2.808-6.528,1.153.57,3.241,5.912-1.041.49,2.794-5.907,1.044,1.068,6.066Zm368.489-1.006-.087-.492-2.542-14.419,3.1-.548,2.134,12.108,6.3-1.111.494,2.8-.492.086Zm-357.591-.917-.087-.492-2.542-14.419,3.1-.548,2.137,12.1,6.3-1.111.5,2.808-.492.086Zm245.492-.638-2.632-14.913,9.63-1.7.086.493.407,2.315-6.528,1.153.574,3.244,5.907-1.044.5,2.8-5.912,1.041,1.068,6.065Zm122.573-.29-2.632-14.912,9.729-1.719.5,2.808-6.636,1.171.574,3.244,6.17-1.09.49,2.8-.492.087-5.677,1,.574,3.258,6.709-1.182.493,2.808-.492.086Zm-480.167-.631-2.629-14.913.492-.086,9.138-1.61.493,2.808-.492.086-6.035,1.063.571,3.244,5.91-1.041.49,2.794-5.907,1.044,1.068,6.063Zm242.188-.054-2.633-14.916,5.463-.963a6.44,6.44,0,0,1,2.981.089,4.234,4.234,0,0,1,2.153,1.407l.009.011a5.293,5.293,0,0,1,1.039,2.413,5.146,5.146,0,0,1-.162,2.618l0,.011a4.185,4.185,0,0,1-1.449,1.958l3.543,4.425,2.546-14.809,3.145-.556.174.306,7.816,13.663-3.294.58-1.922-3.457-4.727.833-.625,3.908-2.4.423h0l-3.534.621-.186-.234-3.57-4.523-2.19.387.927,5.258Zm.963-12.661.712,4.05,2.176-.385a3.638,3.638,0,0,0,1.409-.51,1.466,1.466,0,0,0,.588-.736,2.384,2.384,0,0,0,.042-1.148l-.006-.032a2.443,2.443,0,0,0-.443-1.083,1.558,1.558,0,0,0-.83-.525,3.442,3.442,0,0,0-.77-.088h-.006a3.346,3.346,0,0,0-.707.076l-.021,0Zm14.871-.983-.688,4.332,2.82-.5Zm-135.448,13.408-.087-.492-2.542-14.42.492-.087,9.24-1.628.493,2.809-.492.086-6.138,1.081.571,3.244,6.172-1.086.49,2.794-.492.086-5.677,1,.574,3.259,6.7-1.182.5,2.8Zm-237.98-.684-.087-.493-2.541-14.42,5.458-.963a6.5,6.5,0,0,1,2.984.085l.008,0a4.237,4.237,0,0,1,2.145,1.411l.007.008a5.267,5.267,0,0,1,1.043,2.414,5.14,5.14,0,0,1-.166,2.615l0,.008a4.151,4.151,0,0,1-1.448,1.963l3.545,4.424,2.547-14.811.346-.061,2.8-.491.174.305,7.816,13.663-3.3.58-1.923-3.457-4.723.833-.624,3.9-5.936,1.048-.186-.235-3.568-4.524-2.2.388.928,5.255Zm.963-12.659.716,4.048,2.169-.382a3.651,3.651,0,0,0,1.411-.509,1.459,1.459,0,0,0,.589-.742,2.334,2.334,0,0,0,.047-1.145l0-.029a2.443,2.443,0,0,0-.445-1.084,1.521,1.521,0,0,0-.829-.525,3.4,3.4,0,0,0-1.484-.015l-.018,0Zm14.874-.988-.688,4.338,2.822-.5Zm468.059,13.619-2.632-14.913.492-.086,9.14-1.611.5,2.809-6.532,1.149.574,3.244,5.907-1.043.5,2.8-5.912,1.044,1.068,6.063Zm-357.594-.917-.087-.492-2.542-14.424.492-.086,9.138-1.61.493,2.808-.492.086-6.035,1.063.571,3.244,5.91-1.041.49,2.8-.492.087-5.415.954,1.068,6.066Zm368.488-1-.087-.492-2.542-14.42,3.1-.548,2.134,12.108,6.3-1.111.5,2.808-.492.087Zm-357.591-.917-.087-.492-2.541-14.42,3.1-.548,2.137,12.1,6.3-1.111.5,2.808-.492.086Zm245.492-.638-2.632-14.917.492-.086,9.137-1.61.5,2.808-6.532,1.153.573,3.241,5.907-1.041.5,2.8-5.912,1.041,1.068,6.066Zm242.185-.057-2.633-14.913,5.463-.963a6.427,6.427,0,0,1,1.309-.134,6.508,6.508,0,0,1,1.671.219l0,0a4.227,4.227,0,0,1,2.15,1.407l.009.01a5.253,5.253,0,0,1,1.039,2.417,5.133,5.133,0,0,1-.162,2.614l0,.011a4.172,4.172,0,0,1-1.449,1.959l3.543,4.425,2.551-14.809,3.144-.557,7.985,13.968-3.293.585-.174-.312-1.748-3.148-4.727.835-.621,3.9-.351.062-2.885.507-2.7.479-3.757-4.758-2.193.387.927,5.254Zm.963-12.66.715,4.049,2.17-.382a3.63,3.63,0,0,0,1.411-.51,1.463,1.463,0,0,0,.589-.739,2.319,2.319,0,0,0,.042-1.146l0-.031a2.4,2.4,0,0,0-.442-1.08,1.518,1.518,0,0,0-.831-.528,3.4,3.4,0,0,0-1.486-.014l-.017,0Zm14.872-.988-.689,4.334,2.821-.5Zm-135.446,13.414-2.632-14.912,9.732-1.718.493,2.808-6.63,1.171.573,3.241,6.17-1.086.49,2.8-.492.087-5.677,1,.574,3.258,6.708-1.181.5,2.808-.492.086Zm-480.167-.631-2.629-14.913.492-.086,9.137-1.61.5,2.808-.492.087-6.036,1.063.571,3.244,5.911-1.044.49,2.8-.492.087-5.416.954,1.069,6.066Zm242.188-.057-.087-.492-2.545-14.42.492-.086,4.97-.877a6.423,6.423,0,0,1,2.982.089,4.229,4.229,0,0,1,2.153,1.408l.009.011a5.29,5.29,0,0,1,1.038,2.412,5.136,5.136,0,0,1-.162,2.616l0,.01a4.178,4.178,0,0,1-1.451,1.964l3.545,4.424,2.546-14.81,3.145-.557.174.306,7.816,13.664-3.294.58-1.922-3.457-4.727.832-.624,3.908-3.232.57-2.7.474-.186-.234-3.57-4.522-2.194.387.928,5.258Zm.963-12.658.713,4.048,2.172-.381a3.7,3.7,0,0,0,1.409-.508h0a1.435,1.435,0,0,0,.587-.739,2.349,2.349,0,0,0,.047-1.148l0-.029a2.475,2.475,0,0,0-.444-1.084,1.557,1.557,0,0,0-.83-.525,3.509,3.509,0,0,0-1.487-.014l-.015,0Zm14.871-.982-.688,4.332,2.821-.5Zm-135.448,13.408-.087-.492-2.542-14.42.492-.087,9.24-1.627.493,2.808-.492.087-6.138,1.081.57,3.243,6.168-1.09.5,2.8-6.17,1.086.574,3.261,6.705-1.181.494,2.8-.492.086Zm245.915-.712-2.632-14.913.492-.086,9.137-1.61.5,2.808-6.532,1.15.573,3.243,5.907-1.043.5,2.8-5.912,1.041,1.068,6.065Zm-357.594-.917-.087-.493-2.542-14.424.492-.087,9.137-1.61.5,2.808-.492.087-6.036,1.063.571,3.244,5.911-1.041.49,2.794-5.908,1.044,1.069,6.066Zm368.488-1.006-.087-.492-2.541-14.419,3.1-.548,2.134,12.108,6.3-1.111.5,2.8-.492.086Zm245.492-.638-.087-.493-2.541-14.42.492-.086,9.136-1.61.5,2.808-.492.086-6.039,1.063.573,3.243,5.907-1.043.5,2.8-5.912,1.041,1.072,6.065Zm-603.083-.279-.087-.492-2.541-14.419,3.1-.548,2.138,12.1,6.3-1.111.5,2.808-.492.086Zm245.492-.638-2.632-14.917.492-.087,9.137-1.61.5,2.808-6.528,1.153.573,3.241,5.908-1.041.494,2.8-.492.087-5.419.954,1.069,6.065Zm242.185-.057-2.632-14.912.492-.086,4.97-.877a6.5,6.5,0,0,1,2.98.085l.007,0a4.254,4.254,0,0,1,2.148,1.406l.01.012a5.286,5.286,0,0,1,1.037,2.416,5.14,5.14,0,0,1-.162,2.614l0,.011a4.17,4.17,0,0,1-1.449,1.959l3.543,4.426,2.551-14.811,3.144-.552.175.305,7.812,13.663-3.294.58-.174-.312-1.748-3.148-4.727.835-.621,3.9-.351.062-2.885.507-2.7.479-.186-.235-3.567-4.522-2.193.386.928,5.255Zm.963-12.659.715,4.048,2.17-.381a3.719,3.719,0,0,0,1.412-.51,1.5,1.5,0,0,0,.589-.743,2.334,2.334,0,0,0,.042-1.144l0-.029a2.411,2.411,0,0,0-.444-1.083,1.538,1.538,0,0,0-.829-.525,3.4,3.4,0,0,0-1.486-.015l-.017,0Zm14.872-.988-.689,4.338,2.822-.5Zm-135.446,13.415-2.632-14.916.492-.087,9.24-1.628.493,2.809-.492.086-6.138,1.084.573,3.241,6.17-1.086.49,2.8-.492.087-5.677,1,.574,3.258,6.708-1.182.5,2.808-.492.086Zm-237.983-.688-.087-.492-2.541-14.42.492-.086,4.97-.876a6.431,6.431,0,0,1,2.982.089,4.211,4.211,0,0,1,2.151,1.409l.006.008a5.25,5.25,0,0,1,1.043,2.413,5.128,5.128,0,0,1-.162,2.616l0,.011a4.181,4.181,0,0,1-1.45,1.964l3.544,4.424,2.546-14.81,3.145-.556.174.306,7.816,13.663-3.294.58-1.922-3.457-4.727.833-.624,3.908-3.232.57-2.7.475-.185-.235-3.568-4.524-2.2.387.928,5.26Zm.967-12.658.712,4.048,2.169-.382a3.646,3.646,0,0,0,1.416-.512,1.459,1.459,0,0,0,.585-.734,2.365,2.365,0,0,0,.046-1.149l-.006-.03a2.449,2.449,0,0,0-.443-1.083,1.558,1.558,0,0,0-.83-.525,3.415,3.415,0,0,0-1.484-.014l-.018,0Zm14.872-.981-.689,4.331,2.821-.5Zm468.057,13.611-.087-.492-2.541-14.42.492-.086,9.136-1.611.5,2.809-.492.087-6.039,1.063.573,3.244,5.907-1.041.5,2.793-5.912,1.044,1.073,6.067Zm-603.506-.2-.087-.492-2.542-14.42.492-.087,9.239-1.628.5,2.809-.492.087-6.139,1.08.57,3.244,6.169-1.089.494,2.8-6.168,1.089.573,3.258,6.706-1.185.086.493.407,2.315-.492.086Zm245.915-.712-2.632-14.913.492-.087,9.141-1.61.494,2.8-6.531,1.153.573,3.245,5.908-1.044.494,2.8-.492.087-5.419.954,1.069,6.066Zm368.485-1-.087-.492-2.541-14.424,3.1-.542.087.492,2.047,11.612,6.3-1.111.5,2.808-.492.086Zm-357.591-.92-.087-.492-2.541-14.42,3.1-.548,2.134,12.108,6.3-1.111.5,2.8-.492.086Zm245.492-.638-.087-.493-2.541-14.42.492-.086,9.138-1.611.493,2.809-.492.087-6.039,1.063.573,3.244,5.908-1.044.494,2.8-.492.087-5.419.954,1.072,6.066Zm122.573-.29-2.632-14.912,9.732-1.719.086.493.407,2.315-6.627,1.171.57,3.244,6.169-1.089.5,2.8-6.173,1.086.577,3.261,6.7-1.185.5,2.809-.492.086Zm-480.163-.627-2.633-14.917.492-.087,9.136-1.61.5,2.808-6.533,1.153.574,3.241,5.907-1.041.5,2.8-5.912,1.041,1.068,6.066Zm242.184-.057-2.632-14.913.492-.086,4.972-.876a6.457,6.457,0,0,1,2.98.085,4.237,4.237,0,0,1,2.153,1.408l.01.012a5.291,5.291,0,0,1,1.037,2.412,5.134,5.134,0,0,1-.162,2.617l0,.011a4.186,4.186,0,0,1-1.449,1.959l3.543,4.425,2.546-14.81,3.144-.557,7.991,13.969-3.294.58-.174-.311-1.748-3.146-4.727.835-.621,3.9-.351.062-2.885.507-2.7.479-.186-.235-3.57-4.526-2.19.387.924,5.258Zm.963-12.66.715,4.049,2.17-.382a3.642,3.642,0,0,0,1.413-.514,1.461,1.461,0,0,0,.587-.735,2.374,2.374,0,0,0,.043-1.145l-.006-.032a2.456,2.456,0,0,0-.443-1.085,1.555,1.555,0,0,0-.83-.525,3.435,3.435,0,0,0-1.484-.011l-.018,0Zm14.873-.988-.69,4.335,2.822-.5Zm-135.446,13.415-2.633-14.916.492-.087,9.239-1.627.5,2.808-6.631,1.171.574,3.241,6.169-1.086.489,2.8-.491.087-5.676,1,.574,3.258,6.707-1.181.5,2.808-.492.086Zm-237.983-.688-.087-.492-2.542-14.42,5.465-.964a6.42,6.42,0,0,1,2.979.09,4.207,4.207,0,0,1,2.151,1.409l.006.007a5.252,5.252,0,0,1,1.043,2.414,5.138,5.138,0,0,1-.162,2.615l0,.01a4.172,4.172,0,0,1-1.448,1.963l3.542,4.425,2.548-14.814.346-.061,2.8-.491.174.305,7.816,13.664-3.294.58-1.923-3.457-4.727.832-.624,3.908-.351.062-2.052.36h0l-3.534.62-.185-.234-3.569-4.523-2.2.387.928,5.259Zm.967-12.658.712,4.048,2.172-.381a3.651,3.651,0,0,0,1.413-.512,1.46,1.46,0,0,0,.584-.734,2.35,2.35,0,0,0,.046-1.149l0-.031a2.462,2.462,0,0,0-.444-1.083,1.56,1.56,0,0,0-.833-.526,3.435,3.435,0,0,0-1.482-.013l-.017,0Zm14.868-.986-.687,4.336,2.822-.5Zm468.06,13.62-.087-.493-2.541-14.424.492-.087,9.138-1.61.493,2.808-.492.087-6.039,1.063.573,3.244,5.908-1.041.494,2.794-5.911,1.044,1.072,6.066Zm-357.59-.92-2.633-14.913,9.628-1.7.5,2.808-6.533,1.153.574,3.244,5.907-1.044.5,2.8-5.912,1.041,1.068,6.065Zm368.484-1-.087-.492-2.541-14.424,3.1-.543.087.492,2.047,11.612,6.3-1.111.5,2.809-.492.086Zm-357.59-.921-.087-.492-2.542-14.419,3.1-.548,2.138,12.108,6.3-1.111.086.493.407,2.312-.492.086Zm245.492-.638-2.633-14.913,9.628-1.7.5,2.808-6.533,1.153.574,3.244,5.907-1.044.5,2.8-5.912,1.041,1.072,6.065Zm122.573-.29-2.633-14.913.492-.087,9.238-1.628.5,2.8-6.631,1.171.57,3.244,6.169-1.09.49,2.8-.492.086-5.676,1,.573,3.261,6.708-1.185.5,2.808-.492.086Zm-480.168-.632-.087-.492-2.541-14.42.492-.086,9.136-1.61.5,2.808-.492.086-6.036,1.063.571,3.244,5.91-1.041.5,2.794-5.912,1.044,1.068,6.067Zm242.188-.053-2.632-14.912,5.465-.964a6.447,6.447,0,0,1,2.979.086,4.234,4.234,0,0,1,2.153,1.407l.01.012a5.275,5.275,0,0,1,1.037,2.416,5.122,5.122,0,0,1-.162,2.614l0,.011a4.177,4.177,0,0,1-1.449,1.959l3.543,4.425,2.547-14.81,3.145-.556.174.306,7.816,13.662-3.294.585-1.923-3.46-4.727.835-.62,3.9-5.938,1.048-.186-.235-3.568-4.523-2.193.387.928,5.255Zm.964-12.659.715,4.048,2.169-.381a3.658,3.658,0,0,0,1.414-.514,1.48,1.48,0,0,0,.586-.736,2.356,2.356,0,0,0,.043-1.145l0-.031a2.464,2.464,0,0,0-.444-1.086,1.526,1.526,0,0,0-.829-.522,3.4,3.4,0,0,0-1.486-.015l-.017,0Zm14.871-.984-.689,4.331,2.821-.5ZM13588.75,4394l-.087-.492-2.541-14.42.492-.087,9.238-1.628.5,2.808-6.631,1.171.57,3.241,6.173-1.086.49,2.794-.492.086-5.676,1,.574,3.259,6.709-1.182.493,2.808-.492.086Zm-237.979-.684-2.629-14.913.492-.086,4.973-.877a6.477,6.477,0,0,1,2.978.086l.008,0a4.247,4.247,0,0,1,2.146,1.41l.007.008a5.267,5.267,0,0,1,1.043,2.413,5.139,5.139,0,0,1-.163,2.616l0,.009a4.167,4.167,0,0,1-1.451,1.961l3.545,4.426,2.547-14.813.346-.061,2.8-.491.174.305,7.816,13.663-3.3.58-1.918-3.457-4.727.833-.624,3.9-2.4.426h0l-.894.158h0l-2.642.464-.185-.234-3.568-4.524-2.2.388.928,5.255Zm.967-12.659.712,4.048,2.169-.382a3.648,3.648,0,0,0,1.416-.512,1.447,1.447,0,0,0,.584-.739,2.33,2.33,0,0,0,.046-1.145l0-.03a2.466,2.466,0,0,0-.444-1.083,1.558,1.558,0,0,0-.83-.525,3.418,3.418,0,0,0-1.485-.014l-.017,0Zm14.869-.984-.688,4.334,2.822-.5Zm468.06,13.614-.087-.492-2.546-14.42.492-.087,9.141-1.61.5,2.809-6.532,1.149.574,3.244,5.907-1.043.5,2.8-5.912,1.044,1.072,6.067Zm-357.595-.917-.087-.492-2.541-14.419,9.627-1.7.5,2.808-6.533,1.153.571,3.241,5.91-1.041.5,2.8-5.912,1.041,1.068,6.066Zm368.489-1-.087-.492-2.542-14.42,3.1-.548,2.134,12.108,6.3-1.111.493,2.808-.492.087Zm-357.591-.917-.087-.492-2.542-14.42,3.1-.548,2.137,12.108,6.3-1.111.5,2.8-.492.086Zm245.492-.638-2.632-14.913,9.627-1.7.5,2.8-6.533,1.153.574,3.244,5.907-1.043.5,2.8-5.912,1.041,1.072,6.066Zm242.184-.057-.087-.493-2.541-14.42,5.458-.963a6.517,6.517,0,0,1,2.983.084l.009,0a4.243,4.243,0,0,1,2.146,1.411l.006.008a5.206,5.206,0,0,1,1.039,2.414,5.134,5.134,0,0,1-.162,2.614l0,.01a4.17,4.17,0,0,1-1.45,1.96l3.547,4.433,2.546-14.818,3.145-.552.175.305,7.813,13.663-3.294.58-1.923-3.457-4.727.833-.619,3.9-3.295.585h0l-2.642.465-.186-.234-3.571-4.523-2.193.387.928,5.254Zm.964-12.659.715,4.048,2.169-.382a3.644,3.644,0,0,0,1.415-.512,1.466,1.466,0,0,0,.585-.739,2.326,2.326,0,0,0,.043-1.145l-.006-.035a2.371,2.371,0,0,0-.442-1.077,1.556,1.556,0,0,0-.826-.527,3.442,3.442,0,0,0-1.485-.015l-.018,0Zm14.872-.988-.69,4.338,2.822-.5Zm-135.446,13.414-2.632-14.912,9.73-1.718.5,2.808-6.631,1.171.574,3.244,6.169-1.09.49,2.8-.492.087-5.676,1,.574,3.261,6.709-1.185.086.493.407,2.315-.492.086Zm-480.168-.627-.087-.493-2.541-14.424.492-.086,9.138-1.61.493,2.808-.492.087-6.036,1.063.571,3.244,5.911-1.041.49,2.793-5.907,1.044,1.068,6.066Zm242.188-.057-2.632-14.917.493-.087,4.973-.873a6.425,6.425,0,0,1,2.979.086,4.23,4.23,0,0,1,2.153,1.408l.01.012a5.281,5.281,0,0,1,1.039,2.413,5.162,5.162,0,0,1-.163,2.617l0,.012a4.186,4.186,0,0,1-1.449,1.958l3.542,4.425,2.547-14.809,3.144-.557,7.991,13.969-3.294.58-.174-.311-1.748-3.146-4.728.836-.624,3.9-2.4.422h0l-3.535.62-.185-.234-3.57-4.522-2.19.387.924,5.258Zm.964-12.662.712,4.051,2.176-.385a3.585,3.585,0,0,0,1.409-.51,1.464,1.464,0,0,0,.588-.735,2.388,2.388,0,0,0,.042-1.149l-.006-.032a2.436,2.436,0,0,0-.443-1.082,1.556,1.556,0,0,0-.831-.526,3.453,3.453,0,0,0-1.483-.011l-.019,0Zm14.871-.982-.689,4.331,2.821-.5ZM13498.44,4388.6l-.087-.493-2.541-14.424.492-.087,9.238-1.627.5,2.808-.492.086-6.139,1.081.571,3.244,6.173-1.086.49,2.793-6.169,1.09.574,3.258,6.7-1.181.5,2.8-.493.087Zm245.916-.717-.087-.492-2.545-14.42.492-.086,9.135-1.61.5,2.808-6.533,1.15.574,3.244,5.907-1.041.5,2.794-5.912,1.044,1.072,6.067Zm-357.595-.916-.087-.493-2.541-14.42,9.63-1.7.086.493.407,2.315-6.528,1.153.57,3.241,5.912-1.041.49,2.8-.492.087-5.415.954,1.068,6.065Zm368.489-1-.087-.492-2.542-14.424,3.1-.543.087.492,2.047,11.612,6.3-1.111.5,2.809-.492.086Zm245.492-.643-.087-.492-2.542-14.42.492-.086,9.137-1.61.5,2.808-.492.086-6.04,1.063.574,3.244,5.907-1.041.5,2.794-5.909,1.044,1.069,6.067Zm-603.083-.278-.087-.492-2.542-14.419,3.1-.548,2.137,12.108,6.3-1.111.5,2.8-.492.086Zm245.492-.638-2.632-14.913,9.63-1.7.086.493.407,2.315-6.527,1.153.573,3.241,5.907-1.041.5,2.8-5.912,1.041,1.068,6.065Zm122.573-.29-2.632-14.912,9.729-1.719.5,2.808-6.636,1.171.574,3.244,6.17-1.09.489,2.8-.491.087-5.677,1,.574,3.261,6.708-1.185.5,2.809-.492.086Zm245.912-.712-.087-.493-2.542-14.424.492-.086,9.137-1.611.5,2.808-6.531,1.153.573,3.241,5.912-1.041.49,2.8-.492.086-5.416.954,1.069,6.066Zm-603.506-.208-.087-.492-2.542-14.42.492-.087,9.24-1.628.493,2.809-.492.087-6.138,1.08.571,3.244,6.167-1.086.5,2.794-6.17,1.089.574,3.259,6.7-1.182.5,2.8Zm245.915-.712-2.632-14.913.492-.087,9.14-1.61.5,2.809-.492.087-6.04,1.063.574,3.244,5.907-1.044.5,2.8-5.912,1.041,1.068,6.066Zm368.488-1-2.632-14.912,3.1-.547.087.492,2.047,11.615,6.3-1.114.5,2.809-.492.086Zm-357.594-.92-.087-.492-2.542-14.42,3.1-.548,2.134,12.108,6.3-1.111.5,2.8-.492.086Zm368.065-.928-.087-.492-2.542-14.42.492-.087,9.234-1.627.5,2.808-6.632,1.168.571,3.244,6.168-1.086.494,2.793-6.168,1.09.574,3.258,6.7-1.181.5,2.8-.492.086Zm-357.591-.917-2.632-14.912,9.732-1.719.086.493.407,2.315-6.63,1.171.573,3.245,6.17-1.09.49,2.8-.492.087-5.677,1,.574,3.258,6.708-1.181.5,2.808-.492.086Z" transform="matrix(0.996, -0.087, 0.087, 0.996, -13739.874, -3168.763)" fill="url(#linear-gradient-2)"/>
  </g>
</svg>
