<svg xmlns="http://www.w3.org/2000/svg" width="382.632" height="172.155" viewBox="0 0 382.632 172.155">
  <g id="축하" transform="translate(-767.278 -333.911)">
    <path id="패스_29186" data-name="패스 29186" d="M929.873,21.876c-3.867-.986-7.337-3.564-12.487-11.8-3.16,2.774-5.131,6.047-6.446,11.128,4.677,5.6,7.912,8.55,14.338,11.513C925.588,28.416,926.865,26.046,929.873,21.876Z" transform="translate(-104.758 432.155)" fill="#3f54d1"/>
    <path id="패스_29190" data-name="패스 29190" d="M851.853,11.461c-1.713,3.925-2.357,6.255-1.892,10.609a38.057,38.057,0,0,1,11.87,4.987,16.73,16.73,0,0,1,1.781-5.7C858.605,18.648,855.9,16.027,851.853,11.461Z" transform="matrix(0.309, -0.951, 0.951, 0.309, 857.307, 1264.972)" fill="#3f54d1"/>
    <path id="패스_29194" data-name="패스 29194" d="M876.27,37.552c-4.452,1.4-9.477.979-19.657-4.035-1.431,4.7-1.382,9.162.44,15.019,8.081,2.683,13.114,3.621,21.323,2.615C876.039,46.687,875.849,43.549,876.27,37.552Z" transform="matrix(0.719, -0.695, 0.695, 0.719, 128.524, 995.51)" fill="#5280e2"/>
    <path id="패스_29197" data-name="패스 29197" d="M861.185,89.727c3.963,4.427,6.508,9.1,8.844,15.967,10.56-10.674,18.173-17.281,28-23.117-.547-7.848-2.842-11.6-6.826-16.249C883.832,70.245,872.741,78.782,861.185,89.727Z" transform="translate(-27.07 267.582)" fill="#15cdcb"/>
    <path id="패스_29183" data-name="패스 29183" d="M737.93,75.264A43.124,43.124,0,0,0,741.1,90a17.252,17.252,0,0,0,7.247-5.608c-1.817-2.637-2.06-5.112-2.093-8.994A9.7,9.7,0,0,1,737.93,75.264Z" transform="matrix(0.799, -0.602, 0.602, 0.799, 406.289, 726.504)" fill="#4fe0b5"/>
    <path id="패스_29188" data-name="패스 29188" d="M786.328,73.852c5.409-2.2,8.286-4.377,12.169-9.751-6.276-3.734-9.223-7.084-11.461-11.675-5.23,1.675-8.455,3.679-13.066,7.368C779.245,63.821,782.286,67.57,786.328,73.852Z" transform="translate(103.38 332.16)" fill="#4fe0b5"/>
    <path id="패스_29200" data-name="패스 29200" d="M753.5,95.432c3.77,3.58,5.28,6.709,4.687,12.9,6.358-2.5,9.945-5.644,16.108-11.773.3-4.868-1.065-7.3-5.057-11.119C763.9,90.645,759.713,94.01,753.5,95.432Z" transform="matrix(-0.454, -0.891, 0.891, -0.454, 1334.097, 1216.225)" fill="#15cdcb"/>
    <path id="패스_29201" data-name="패스 29201" d="M758.507,99.96a6.519,6.519,0,0,1-4.729,2.675A52.653,52.653,0,0,0,761.9,115.4a12.477,12.477,0,0,0,5.876-3.194C763.074,108.511,761.058,105.231,758.507,99.96Z" transform="matrix(0.951, -0.309, 0.309, 0.951, 76.295, 519.913)" fill="#3f54d1"/>
    <path id="패스_29184" data-name="패스 29184" d="M739.452,62.969c6.114,6.4,8.447,11.849,6.935,22.317,11.014-3.741,17.363-8.8,28.339-18.732.9-8.238-1.224-12.5-7.7-19.319C757.532,55.669,750.14,61.053,739.452,62.969Z" transform="translate(507.414 865.008) rotate(-42)" fill="#4fe0b5"/>
    <path id="패스_29195" data-name="패스 29195" d="M728.923,31.06c6.6,2.006,10.845,2.151,18.4.119-2.971-8.087-3.177-13.347-1.816-19.221C739.469,9.611,735.024,9.043,728.062,9,729.9,16.609,729.893,22.3,728.923,31.06Z" transform="translate(275.195 343.597)" fill="#3f54d1"/>
  </g>
</svg>
