<svg id="브랜드로고없음" xmlns="http://www.w3.org/2000/svg" xmlns:xlink="http://www.w3.org/1999/xlink" width="500" height="500" viewBox="0 0 500 500">
  <defs>
    <clipPath id="clip-path">
      <rect id="사각형_4" data-name="사각형 4" width="360" height="74.929" fill="none"/>
    </clipPath>
  </defs>
  <rect id="사각형" width="500" height="500" fill="#fff"/>
  <g id="CI" transform="translate(70 216)" clip-path="url(#clip-path)">
    <path id="패스_27" data-name="패스 27" d="M60.395,74.929H51.233V0h9.162V20.3h8.93v7.944h-8.93ZM21.874,53.006a21.747,21.747,0,0,1-9.149-1.874,19.854,19.854,0,0,1-6.919-5.21,24.24,24.24,0,0,1-4.32-7.927A31.489,31.489,0,0,1,0,28.127a31.213,31.213,0,0,1,1.487-9.785A24.267,24.267,0,0,1,5.8,10.419a20.372,20.372,0,0,1,6.921-5.253A21.364,21.364,0,0,1,21.874,3.25a20.548,20.548,0,0,1,8.871,1.917,21.383,21.383,0,0,1,6.948,5.242,26.135,26.135,0,0,1,4.442,7.921,28.985,28.985,0,0,1,1.613,9.8,29.239,29.239,0,0,1-1.613,9.88A26.088,26.088,0,0,1,37.7,45.917a20.593,20.593,0,0,1-15.827,7.089m0-41.9a10.622,10.622,0,0,0-9.2,4.735c-2.279,3.2-3.435,7.329-3.435,12.283,0,5.008,1.154,9.153,3.433,12.321a10.642,10.642,0,0,0,9.2,4.7,10.582,10.582,0,0,0,5.034-1.238,12,12,0,0,0,3.97-3.427,17.12,17.12,0,0,0,2.677-5.4,23.975,23.975,0,0,0,.952-6.954,23.655,23.655,0,0,0-.952-6.87,17.165,17.165,0,0,0-2.677-5.4A12.471,12.471,0,0,0,26.9,12.384a10.333,10.333,0,0,0-5.027-1.274" transform="translate(0 0)" fill="#3e4e55"/>
    <path id="패스_28" data-name="패스 28" d="M95.091,74.929H85.929V0h9.162ZM56.572,53.006a21.747,21.747,0,0,1-9.149-1.874,19.853,19.853,0,0,1-6.919-5.21,24.2,24.2,0,0,1-4.32-7.927A31.427,31.427,0,0,1,34.7,28.127a31.151,31.151,0,0,1,1.489-9.785A24.228,24.228,0,0,1,40.5,10.419a20.362,20.362,0,0,1,6.919-5.253A21.373,21.373,0,0,1,56.572,3.25a20.532,20.532,0,0,1,8.869,1.917,21.383,21.383,0,0,1,6.948,5.242,26.059,26.059,0,0,1,4.442,7.923,28.991,28.991,0,0,1,1.615,9.8,29.257,29.257,0,0,1-1.615,9.88A26.05,26.05,0,0,1,72.4,45.917a20.584,20.584,0,0,1-15.825,7.089m0-41.9a10.619,10.619,0,0,0-9.2,4.735c-2.281,3.2-3.437,7.329-3.437,12.283,0,5.008,1.156,9.153,3.435,12.321A11.188,11.188,0,0,0,61.6,43.908a11.978,11.978,0,0,0,3.97-3.427,17.1,17.1,0,0,0,2.679-5.4,24.077,24.077,0,0,0,.95-6.954,23.747,23.747,0,0,0-.95-6.87,17.146,17.146,0,0,0-2.679-5.4A12.5,12.5,0,0,0,61.6,12.384a10.319,10.319,0,0,0-5.025-1.274" transform="translate(38.377 0)" fill="#3e4e55"/>
    <path id="패스_29" data-name="패스 29" d="M137.478,66.427H69.046V58.485h68.432Zm-12.464-23.4L103.342,14.318,81.51,43.022l-6.9-5.611L103.262.344l28.653,37.067Z" transform="translate(76.372 0.381)" fill="#3e4e55"/>
    <path id="패스_30" data-name="패스 30" d="M162.309,74.927H153.15V52.6h-40.6V44.656h49.757Zm0-32.476H153.15V37.577H106.057V1.624h37.577V9.4H115.216v6.268h27.607v7.536H115.216V29.8H153.15V0h9.159V14.614h8.932v7.942h-8.932Z" transform="translate(117.31 0)" fill="#3e4e55"/>
    <path id="패스_31" data-name="패스 31" d="M197.94,74.076H148.183V55.009h39.784V51.5H147.776v-7.7h49.352V62.547H157.342v3.829h40.6Zm8.932-33.7H138.44V32.438h29.635V26.984H148.183V.771h48.946V26.984H177.236v5.455h29.635ZM157.342,19.041h30.625V8.713H157.342Z" transform="translate(153.129 0.853)" fill="#3e4e55"/>
  </g>
</svg>
