<svg id="icon_Naverpay_활성" xmlns="http://www.w3.org/2000/svg" width="58" height="20" viewBox="0 0 58 20">
  <path id="패스_8" data-name="패스 8" d="M106.765,14.476l-2.782,6.338-3.147-6.338H98.414l4.46,8.794-1.838,4.106h2.349l5.729-12.9Zm-9.691,9.8h-2.3v-.915a4.473,4.473,0,0,1-3.025,1.115,4.95,4.95,0,0,1-4.9-5.1,4.95,4.95,0,0,1,4.9-5.1,4.473,4.473,0,0,1,3.025,1.115v-.915h2.3Zm-2.03-4.9a3.01,3.01,0,1,0-6,0,3.01,3.01,0,1,0,6,0m-19.63,8h2.4V23.445a4.467,4.467,0,0,0,2.925,1.031,4.95,4.95,0,0,0,4.9-5.1,4.95,4.95,0,0,0-4.9-5.1,4.473,4.473,0,0,0-3.025,1.115v-.915h-2.3Zm5.03-11.25a3.066,3.066,0,0,1,3,3.25,3.01,3.01,0,1,1-6,0,3.066,3.066,0,0,1,3-3.25" transform="translate(-51.114 -9.676)" fill="#03c75a"/>
  <path id="패스_9" data-name="패스 9" d="M20,10A10,10,0,1,1,10,0,10,10,0,0,1,20,10M11.673,5.3v5.029L8.181,5.3H5.3v9.4H8.327V9.671L11.819,14.7H14.7V5.3Z" fill="#03c75a"/>
</svg>
